<svg width="487" height="72" viewBox="0 0 487 72" fill="none" xmlns="http://www.w3.org/2000/svg">
<path d="M55.4 55H22.9L16.7 70H0.0999999L31.3 -4.76837e-06H47.3L78.6 70H61.6L55.4 55ZM50.3 42.7L39.2 15.9L28.1 42.7H50.3ZM130.163 40C133.363 41.2 135.829 43 137.563 45.4C139.363 47.8 140.263 50.7333 140.263 54.2C140.263 59.2 138.196 63.1 134.062 65.9C129.996 68.6333 124.063 70 116.263 70H85.2625V12.5H114.663C122.063 12.5 127.696 13.8667 131.563 16.6C135.429 19.3333 137.363 23 137.363 27.6C137.363 30.3333 136.729 32.7667 135.463 34.9C134.263 37.0333 132.496 38.7333 130.163 40ZM100.863 23.6V35.7H112.663C115.529 35.7 117.729 35.2 119.263 34.2C120.796 33.1333 121.563 31.6333 121.563 29.7C121.563 27.7 120.796 26.2 119.263 25.2C117.796 24.1333 115.596 23.6 112.663 23.6H100.863ZM115.163 58.9C121.296 58.9 124.363 56.8 124.363 52.6C124.363 48.4 121.296 46.3 115.163 46.3H100.863V58.9H115.163ZM179.183 71.1C173.049 71.1 167.516 69.8333 162.583 67.3C157.716 64.7 153.883 61.1333 151.083 56.6C148.283 52.0667 146.883 46.9667 146.883 41.3C146.883 35.6333 148.283 30.5333 151.083 26C153.883 21.4 157.716 17.8333 162.583 15.3C167.516 12.7 173.049 11.4 179.183 11.4C185.316 11.4 190.816 12.7 195.683 15.3C200.616 17.8333 204.483 21.4 207.283 26C210.083 30.5333 211.483 35.6333 211.483 41.3C211.483 46.9667 210.083 52.0667 207.283 56.6C204.483 61.1333 200.616 64.7 195.683 67.3C190.816 69.8333 185.316 71.1 179.183 71.1ZM179.183 58.2C182.249 58.2 185.016 57.4667 187.483 56C190.016 54.5333 191.983 52.5333 193.383 50C194.783 47.4 195.483 44.5 195.483 41.3C195.483 38.0333 194.783 35.1333 193.383 32.6C191.983 30 190.016 27.9667 187.483 26.5C185.016 25.0333 182.249 24.3 179.183 24.3C176.116 24.3 173.316 25.0333 170.783 26.5C168.316 27.9667 166.349 30 164.883 32.6C163.483 35.1333 162.783 38.0333 162.783 41.3C162.783 44.5 163.483 47.4 164.883 50C166.349 52.5333 168.316 54.5333 170.783 56C173.316 57.4667 176.116 58.2 179.183 58.2ZM249.265 71.1C240.732 71.1 234.065 68.8 229.265 64.2C224.465 59.6 222.065 53.2667 222.065 45.2V12.5H237.865V44.7C237.865 49.1667 238.832 52.5333 240.765 54.8C242.765 57.0667 245.665 58.2 249.465 58.2C253.198 58.2 256.032 57.0667 257.965 54.8C259.898 52.5333 260.865 49.1667 260.865 44.7V12.5H276.465V45.2C276.465 53.2667 274.065 59.6 269.265 64.2C264.465 68.8 257.798 71.1 249.265 71.1ZM302.02 24.8H283.92V12.5H335.92V24.8H317.82V70H302.02V24.8ZM398.972 71.1C390.439 71.1 383.772 68.8 378.972 64.2C374.172 59.6 371.772 53.2667 371.772 45.2V12.5H387.572V44.7C387.572 49.1667 388.539 52.5333 390.472 54.8C392.472 57.0667 395.372 58.2 399.172 58.2C402.905 58.2 405.739 57.0667 407.672 54.8C409.605 52.5333 410.572 49.1667 410.572 44.7V12.5H426.172V45.2C426.172 53.2667 423.772 59.6 418.972 64.2C414.172 68.8 407.505 71.1 398.972 71.1ZM460.027 71.1C455.36 71.1 450.793 70.5333 446.327 69.4C441.927 68.2667 438.393 66.7667 435.727 64.9L441.227 53.2C443.827 54.9333 446.86 56.3 450.327 57.3C453.793 58.3 457.327 58.8 460.927 58.8C464.26 58.8 466.66 58.3667 468.127 57.5C469.66 56.5667 470.427 55.3333 470.427 53.8C470.427 52.0667 469.493 50.8 467.627 50C465.76 49.1333 462.793 48.3 458.727 47.5C454.26 46.5667 450.593 45.6 447.727 44.6C444.86 43.5333 442.36 41.8333 440.227 39.5C438.16 37.1667 437.127 33.9667 437.127 29.9C437.127 26.3 438.16 23.1 440.227 20.3C442.293 17.5 445.26 15.3333 449.127 13.8C453.06 12.2 457.66 11.4 462.927 11.4C466.793 11.4 470.56 11.8333 474.227 12.7C477.893 13.5 481.06 14.7333 483.727 16.4L478.627 28.1C473.827 25.1667 468.393 23.7 462.327 23.7C459.06 23.7 456.627 24.2 455.027 25.2C453.493 26.1333 452.727 27.4 452.727 29C452.727 30.7333 453.66 32 455.527 32.8C457.393 33.6 460.36 34.4 464.427 35.2C468.827 36.1333 472.46 37.1333 475.327 38.2C478.26 39.2 480.76 40.8667 482.827 43.2C484.96 45.4667 486.027 48.5667 486.027 52.5C486.027 56.1667 484.993 59.4 482.927 62.2C480.927 65 477.96 67.2 474.027 68.8C470.093 70.3333 465.427 71.1 460.027 71.1Z" fill="white" fill-opacity="0.8"/>
</svg>
