<svg width="655" height="72" viewBox="0 0 655 72" fill="none" xmlns="http://www.w3.org/2000/svg">
<path d="M51.7 33.6C55.7 34.8667 58.8333 37 61.1 40C63.3667 42.9333 64.5 46.5667 64.5 50.9C64.5 57.0333 62.1 61.7667 57.3 65.1C52.5667 68.3667 45.6333 70 36.5 70H0.3V-4.76837e-06H34.5C43.0333 -4.76837e-06 49.5667 1.63333 54.1 4.9C58.7 8.16666 61 12.6 61 18.2C61 21.6 60.1667 24.6333 58.5 27.3C56.9 29.9667 54.6333 32.0667 51.7 33.6ZM16.4 12.2V28.7H32.5C36.5 28.7 39.5333 28 41.6 26.6C43.6667 25.2 44.7 23.1333 44.7 20.4C44.7 17.6667 43.6667 15.6333 41.6 14.3C39.5333 12.9 36.5 12.2 32.5 12.2H16.4ZM35.3 57.8C39.5667 57.8 42.7667 57.1 44.9 55.7C47.1 54.3 48.2 52.1333 48.2 49.2C48.2 43.4 43.9 40.5 35.3 40.5H16.4V57.8H35.3ZM76.1648 12.5H91.9648V57.7H120.065V70H76.1648V12.5ZM155.534 71.1C149.401 71.1 143.868 69.8333 138.934 67.3C134.068 64.7 130.234 61.1333 127.434 56.6C124.634 52.0667 123.234 46.9667 123.234 41.3C123.234 35.6333 124.634 30.5333 127.434 26C130.234 21.4 134.068 17.8333 138.934 15.3C143.868 12.7 149.401 11.4 155.534 11.4C161.668 11.4 167.168 12.7 172.034 15.3C176.968 17.8333 180.834 21.4 183.634 26C186.434 30.5333 187.834 35.6333 187.834 41.3C187.834 46.9667 186.434 52.0667 183.634 56.6C180.834 61.1333 176.968 64.7 172.034 67.3C167.168 69.8333 161.668 71.1 155.534 71.1ZM155.534 58.2C158.601 58.2 161.368 57.4667 163.834 56C166.368 54.5333 168.334 52.5333 169.734 50C171.134 47.4 171.834 44.5 171.834 41.3C171.834 38.0333 171.134 35.1333 169.734 32.6C168.334 30 166.368 27.9667 163.834 26.5C161.368 25.0333 158.601 24.3 155.534 24.3C152.468 24.3 149.668 25.0333 147.134 26.5C144.668 27.9667 142.701 30 141.234 32.6C139.834 35.1333 139.134 38.0333 139.134 41.3C139.134 44.5 139.834 47.4 141.234 50C142.701 52.5333 144.668 54.5333 147.134 56C149.668 57.4667 152.468 58.2 155.534 58.2ZM236.816 40.5H251.216V63.8C248.083 66.1333 244.383 67.9333 240.116 69.2C235.85 70.4667 231.65 71.1 227.516 71.1C221.183 71.1 215.516 69.8333 210.516 67.3C205.583 64.7 201.716 61.1333 198.916 56.6C196.183 52.0667 194.816 46.9667 194.816 41.3C194.816 35.6333 196.216 30.5333 199.016 26C201.816 21.4 205.683 17.8333 210.616 15.3C215.616 12.7 221.216 11.4 227.416 11.4C238.483 11.4 246.85 14.8333 252.516 21.7L242.116 31C238.316 26.5333 233.483 24.3 227.616 24.3C222.683 24.3 218.616 25.8667 215.416 29C212.283 32.1333 210.716 36.2333 210.716 41.3C210.716 46.3 212.283 50.3667 215.416 53.5C218.616 56.6333 222.75 58.2 227.816 58.2C231.016 58.2 234.016 57.6 236.816 56.4V40.5ZM337.555 71.1L330.855 65.2C325.388 69.1333 319.088 71.1 311.955 71.1C307.555 71.1 303.588 70.4 300.055 69C296.521 67.5333 293.721 65.5333 291.655 63C289.588 60.4667 288.555 57.5667 288.555 54.3C288.555 50.9 289.488 47.9 291.355 45.3C293.288 42.7 296.321 40.2667 300.455 38C296.921 34.2 295.155 30.3333 295.155 26.4C295.155 22 296.855 18.4667 300.255 15.8C303.721 13.0667 308.288 11.7 313.955 11.7C319.221 11.7 323.455 12.9333 326.655 15.4C329.921 17.8667 331.555 21.2 331.555 25.4C331.555 28.3333 330.688 31 328.955 33.4C327.288 35.7333 324.621 37.9 320.955 39.9L330.155 48C331.488 45.6 332.555 42.8 333.355 39.6L345.055 43C343.855 48 341.988 52.4 339.455 56.2L345.755 61.8L337.555 71.1ZM314.155 21.5C312.355 21.5 310.955 21.9667 309.955 22.9C309.021 23.7667 308.555 24.8667 308.555 26.2C308.555 27.1333 308.821 28.0333 309.355 28.9C309.888 29.7667 310.955 30.9333 312.555 32.4C314.955 31.2 316.655 30.1 317.655 29.1C318.721 28.0333 319.255 26.9333 319.255 25.8C319.255 24.5333 318.821 23.5 317.955 22.7C317.088 21.9 315.821 21.5 314.155 21.5ZM312.855 59.9C316.121 59.9 319.155 59 321.955 57.2L308.755 45.6C306.688 46.8 305.188 48 304.255 49.2C303.388 50.4 302.955 51.7667 302.955 53.3C302.955 55.1667 303.821 56.7333 305.555 58C307.355 59.2667 309.788 59.9 312.855 59.9ZM437.903 12.5V70H424.903L398.403 38.3V70H382.903V12.5H395.903L422.403 44.3V12.5H437.903ZM499.613 57.9V70H453.313V12.5H498.513V24.6H468.913V35.1H495.113V46.6H468.913V57.9H499.613ZM600.735 12.5L581.735 70H564.835L553.135 33.6L541.135 70H524.235L505.135 12.5H521.435L533.535 50.1L546.135 12.5H560.735L572.935 50.8L585.535 12.5H600.735ZM628.273 71.1C623.606 71.1 619.039 70.5333 614.573 69.4C610.173 68.2667 606.639 66.7667 603.973 64.9L609.473 53.2C612.073 54.9333 615.106 56.3 618.573 57.3C622.039 58.3 625.573 58.8 629.173 58.8C632.506 58.8 634.906 58.3667 636.373 57.5C637.906 56.5667 638.673 55.3333 638.673 53.8C638.673 52.0667 637.739 50.8 635.873 50C634.006 49.1333 631.039 48.3 626.973 47.5C622.506 46.5667 618.839 45.6 615.973 44.6C613.106 43.5333 610.606 41.8333 608.473 39.5C606.406 37.1667 605.373 33.9667 605.373 29.9C605.373 26.3 606.406 23.1 608.473 20.3C610.539 17.5 613.506 15.3333 617.373 13.8C621.306 12.2 625.906 11.4 631.173 11.4C635.039 11.4 638.806 11.8333 642.473 12.7C646.139 13.5 649.306 14.7333 651.973 16.4L646.873 28.1C642.073 25.1667 636.639 23.7 630.573 23.7C627.306 23.7 624.873 24.2 623.273 25.2C621.739 26.1333 620.973 27.4 620.973 29C620.973 30.7333 621.906 32 623.773 32.8C625.639 33.6 628.606 34.4 632.673 35.2C637.073 36.1333 640.706 37.1333 643.573 38.2C646.506 39.2 649.006 40.8667 651.073 43.2C653.206 45.4667 654.273 48.5667 654.273 52.5C654.273 56.1667 653.239 59.4 651.173 62.2C649.173 65 646.206 67.2 642.273 68.8C638.339 70.3333 633.673 71.1 628.273 71.1Z" fill="white" fill-opacity="0.8"/>
</svg>
