<svg width="502" height="109" viewBox="0 0 502 109" fill="none" xmlns="http://www.w3.org/2000/svg">
<path d="M42.95 108.8C34.65 108.8 26.6 107.7 18.8 105.5C11.1 103.2 4.9 100.25 0.2 96.65L8.45 78.35C12.95 81.65 18.3 84.3 24.5 86.3C30.7 88.3 36.9 89.3 43.1 89.3C50 89.3 55.1 88.3 58.4 86.3C61.7 84.2 63.35 81.45 63.35 78.05C63.35 75.55 62.35 73.5 60.35 71.9C58.45 70.2 55.95 68.85 52.85 67.85C49.85 66.85 45.75 65.75 40.55 64.55C32.55 62.65 26 60.75 20.9 58.85C15.8 56.95 11.4 53.9 7.7 49.7C4.1 45.5 2.3 39.9 2.3 32.9C2.3 26.8 3.95 21.3 7.25 16.4C10.55 11.4 15.5 7.44999 22.1 4.55C28.8 1.65 36.95 0.199998 46.55 0.199998C53.25 0.199998 59.8 0.999997 66.2 2.59999C72.6 4.2 78.2 6.5 83 9.49999L75.5 27.95C65.8 22.45 56.1 19.7 46.4 19.7C39.6 19.7 34.55 20.8 31.25 23C28.05 25.2 26.45 28.1 26.45 31.7C26.45 35.3 28.3 38 32 39.8C35.8 41.5 41.55 43.2 49.25 44.9C57.25 46.8 63.8 48.7 68.9 50.6C74 52.5 78.35 55.5 81.95 59.6C85.65 63.7 87.5 69.25 87.5 76.25C87.5 82.25 85.8 87.75 82.4 92.75C79.1 97.65 74.1 101.55 67.4 104.45C60.7 107.35 52.55 108.8 42.95 108.8ZM103.204 20.75H126.904V107H103.204V20.75ZM206.486 62.75H228.086V97.7C223.386 101.2 217.836 103.9 211.436 105.8C205.036 107.7 198.736 108.65 192.536 108.65C183.036 108.65 174.536 106.75 167.036 102.95C159.636 99.05 153.836 93.7 149.636 86.9C145.536 80.1 143.486 72.45 143.486 63.95C143.486 55.45 145.586 47.8 149.786 41C153.986 34.1 159.786 28.75 167.186 24.95C174.686 21.05 183.086 19.1 192.386 19.1C208.986 19.1 221.536 24.25 230.036 34.55L214.436 48.5C208.736 41.8 201.486 38.45 192.686 38.45C185.286 38.45 179.186 40.8 174.386 45.5C169.686 50.2 167.336 56.35 167.336 63.95C167.336 71.45 169.686 77.55 174.386 82.25C179.186 86.95 185.386 89.3 192.986 89.3C197.786 89.3 202.286 88.4 206.486 86.6V62.75ZM248.663 20.75H272.363V53.75H307.463V20.75H331.163V107H307.463V72.8H272.363V107H248.663V20.75ZM370.479 39.2H343.329V20.75H421.329V39.2H394.179V107H370.479V39.2ZM462.177 108.65C455.177 108.65 448.327 107.8 441.627 106.1C435.027 104.4 429.727 102.15 425.727 99.35L433.977 81.8C437.877 84.4 442.427 86.45 447.627 87.95C452.827 89.45 458.127 90.2 463.527 90.2C468.527 90.2 472.127 89.55 474.327 88.25C476.627 86.85 477.777 85 477.777 82.7C477.777 80.1 476.377 78.2 473.577 77C470.777 75.7 466.327 74.45 460.227 73.25C453.527 71.85 448.027 70.4 443.727 68.9C439.427 67.3 435.677 64.75 432.477 61.25C429.377 57.75 427.827 52.95 427.827 46.85C427.827 41.45 429.377 36.65 432.477 32.45C435.577 28.25 440.027 25 445.827 22.7C451.727 20.3 458.627 19.1 466.527 19.1C472.327 19.1 477.977 19.75 483.477 21.05C488.977 22.25 493.727 24.1 497.727 26.6L490.077 44.15C482.877 39.75 474.727 37.55 465.627 37.55C460.727 37.55 457.077 38.3 454.677 39.8C452.377 41.2 451.227 43.1 451.227 45.5C451.227 48.1 452.627 50 455.427 51.2C458.227 52.4 462.677 53.6 468.777 54.8C475.377 56.2 480.827 57.7 485.127 59.3C489.527 60.8 493.277 63.3 496.377 66.8C499.577 70.2 501.177 74.85 501.177 80.75C501.177 86.25 499.627 91.1 496.527 95.3C493.527 99.5 489.077 102.8 483.177 105.2C477.277 107.5 470.277 108.65 462.177 108.65Z" fill="white" fill-opacity="0.8"/>
</svg>
