<svg width="1125" height="401" viewBox="0 0 1125 201" fill="none" xmlns="http://www.w3.org/2000/svg">
<path d="M80.9688 22V78H68.0088V55.04H42.5688V78H29.6088V22H42.5688V44.08H68.0088V22H80.9688ZM93.7381 32H106.378V78H93.7381V32ZM148.822 54.4H160.342V73.04C157.835 74.9067 154.875 76.3467 151.462 77.36C148.049 78.3733 144.689 78.88 141.382 78.88C136.315 78.88 131.782 77.8667 127.782 75.84C123.835 73.76 120.742 70.9067 118.502 67.28C116.315 63.6533 115.222 59.5733 115.222 55.04C115.222 50.5067 116.342 46.4267 118.582 42.8C120.822 39.12 123.915 36.2667 127.862 34.24C131.862 32.16 136.342 31.12 141.302 31.12C150.155 31.12 156.849 33.8667 161.382 39.36L153.062 46.8C150.022 43.2267 146.155 41.44 141.462 41.44C137.515 41.44 134.262 42.6933 131.702 45.2C129.195 47.7067 127.942 50.9867 127.942 55.04C127.942 59.04 129.195 62.2933 131.702 64.8C134.262 67.3067 137.569 68.56 141.622 68.56C144.182 68.56 146.582 68.08 148.822 67.12V54.4ZM171.316 32H183.956V49.6H202.676V32H215.316V78H202.676V59.76H183.956V78H171.316V32ZM227.644 32H240.284V68.16H262.764V78H227.644V32ZM269.598 32H282.238V78H269.598V32ZM324.681 54.4H336.201V73.04C333.695 74.9067 330.735 76.3467 327.321 77.36C323.908 78.3733 320.548 78.88 317.241 78.88C312.175 78.88 307.641 77.8667 303.641 75.84C299.695 73.76 296.601 70.9067 294.361 67.28C292.175 63.6533 291.081 59.5733 291.081 55.04C291.081 50.5067 292.201 46.4267 294.441 42.8C296.681 39.12 299.775 36.2667 303.721 34.24C307.721 32.16 312.201 31.12 317.161 31.12C326.015 31.12 332.708 33.8667 337.241 39.36L328.921 46.8C325.881 43.2267 322.015 41.44 317.321 41.44C313.375 41.44 310.121 42.6933 307.561 45.2C305.055 47.7067 303.801 50.9867 303.801 55.04C303.801 59.04 305.055 62.2933 307.561 64.8C310.121 67.3067 313.428 68.56 317.481 68.56C320.041 68.56 322.441 68.08 324.681 67.12V54.4ZM347.176 32H359.816V49.6H378.536V32H391.176V78H378.536V59.76H359.816V78H347.176V32ZM412.144 41.84H397.664V32H439.264V41.84H424.784V78H412.144V41.84ZM461.049 78.88C457.316 78.88 453.663 78.4267 450.089 77.52C446.569 76.6133 443.743 75.4133 441.609 73.92L446.009 64.56C448.089 65.9467 450.516 67.04 453.289 67.84C456.063 68.64 458.889 69.04 461.769 69.04C464.436 69.04 466.356 68.6933 467.529 68C468.756 67.2533 469.369 66.2667 469.369 65.04C469.369 63.6533 468.623 62.64 467.129 62C465.636 61.3067 463.263 60.64 460.009 60C456.436 59.2533 453.503 58.48 451.209 57.68C448.916 56.8267 446.916 55.4667 445.209 53.6C443.556 51.7333 442.729 49.1733 442.729 45.92C442.729 43.04 443.556 40.48 445.209 38.24C446.863 36 449.236 34.2667 452.329 33.04C455.476 31.76 459.156 31.12 463.369 31.12C466.463 31.12 469.476 31.4667 472.409 32.16C475.343 32.8 477.876 33.7867 480.009 35.12L475.929 44.48C472.089 42.1333 467.743 40.96 462.889 40.96C460.276 40.96 458.329 41.36 457.049 42.16C455.823 42.9067 455.209 43.92 455.209 45.2C455.209 46.5867 455.956 47.6 457.449 48.24C458.943 48.88 461.316 49.52 464.569 50.16C468.089 50.9067 470.996 51.7067 473.289 52.56C475.636 53.36 477.636 54.6933 479.289 56.56C480.996 58.3733 481.849 60.8533 481.849 64C481.849 66.9333 481.023 69.52 479.369 71.76C477.769 74 475.396 75.76 472.249 77.04C469.103 78.2667 465.369 78.88 461.049 78.88ZM534.968 78.88C530.061 78.88 525.635 77.8667 521.688 75.84C517.795 73.76 514.728 70.9067 512.488 67.28C510.248 63.6533 509.128 59.5733 509.128 55.04C509.128 50.5067 510.248 46.4267 512.488 42.8C514.728 39.12 517.795 36.2667 521.688 34.24C525.635 32.16 530.061 31.12 534.968 31.12C539.875 31.12 544.275 32.16 548.168 34.24C552.115 36.2667 555.208 39.12 557.448 42.8C559.688 46.4267 560.808 50.5067 560.808 55.04C560.808 59.5733 559.688 63.6533 557.448 67.28C555.208 70.9067 552.115 73.76 548.168 75.84C544.275 77.8667 539.875 78.88 534.968 78.88ZM534.968 68.56C537.421 68.56 539.635 67.9733 541.608 66.8C543.635 65.6267 545.208 64.0267 546.328 62C547.448 59.92 548.008 57.6 548.008 55.04C548.008 52.4267 547.448 50.1067 546.328 48.08C545.208 46 543.635 44.3733 541.608 43.2C539.635 42.0267 537.421 41.44 534.968 41.44C532.515 41.44 530.275 42.0267 528.248 43.2C526.275 44.3733 524.701 46 523.528 48.08C522.408 50.1067 521.848 52.4267 521.848 55.04C521.848 57.6 522.408 59.92 523.528 62C524.701 64.0267 526.275 65.6267 528.248 66.8C530.275 67.9733 532.515 68.56 534.968 68.56ZM582.394 41.68V52.4H603.194V62.08H582.394V78H569.754V32H605.914V41.68H582.394ZM657.587 56L650.067 63.84V78H637.187V22H650.067V48.16L674.867 22H689.267L666.067 46.96L690.627 78H675.507L657.587 56ZM717.039 62.72V78H704.399V62.72L685.839 32H699.199L711.119 51.6L722.959 32H735.679L717.039 62.72ZM761.326 65.68H753.566V78H740.926V32H761.886C768.232 32 773.272 33.52 777.006 36.56C780.739 39.5467 782.606 43.68 782.606 48.96C782.606 52.32 781.779 55.2533 780.126 57.76C778.526 60.2133 776.232 62.1333 773.246 63.52L783.486 78H769.886L761.326 65.68ZM769.886 48.96C769.886 46.6667 769.139 44.9067 767.646 43.68C766.152 42.4533 763.939 41.84 761.006 41.84H753.566V56.08H761.006C763.939 56.08 766.152 55.4667 767.646 54.24C769.139 53.0133 769.886 51.2533 769.886 48.96ZM822.65 54.4H834.17V73.04C831.663 74.9067 828.703 76.3467 825.29 77.36C821.877 78.3733 818.517 78.88 815.21 78.88C810.143 78.88 805.61 77.8667 801.61 75.84C797.663 73.76 794.57 70.9067 792.33 67.28C790.143 63.6533 789.05 59.5733 789.05 55.04C789.05 50.5067 790.17 46.4267 792.41 42.8C794.65 39.12 797.743 36.2667 801.69 34.24C805.69 32.16 810.17 31.12 815.13 31.12C823.983 31.12 830.677 33.8667 835.21 39.36L826.89 46.8C823.85 43.2267 819.983 41.44 815.29 41.44C811.343 41.44 808.09 42.6933 805.53 45.2C803.023 47.7067 801.77 50.9867 801.77 55.04C801.77 59.04 803.023 62.2933 805.53 64.8C808.09 67.3067 811.397 68.56 815.45 68.56C818.01 68.56 820.41 68.08 822.65 67.12V54.4ZM869.304 62.72V78H856.664V62.72L838.104 32H851.464L863.384 51.6L875.224 32H887.944L869.304 62.72ZM931.431 68.16V78H889.911V70.08L914.071 41.84H890.471V32H930.471V39.92L906.231 68.16H931.431ZM954.643 78.88C950.91 78.88 947.256 78.4267 943.683 77.52C940.163 76.6133 937.336 75.4133 935.203 73.92L939.603 64.56C941.683 65.9467 944.11 67.04 946.883 67.84C949.656 68.64 952.483 69.04 955.363 69.04C958.03 69.04 959.95 68.6933 961.123 68C962.35 67.2533 962.963 66.2667 962.963 65.04C962.963 63.6533 962.216 62.64 960.723 62C959.23 61.3067 956.856 60.64 953.603 60C950.03 59.2533 947.096 58.48 944.803 57.68C942.51 56.8267 940.51 55.4667 938.803 53.6C937.15 51.7333 936.323 49.1733 936.323 45.92C936.323 43.04 937.15 40.48 938.803 38.24C940.456 36 942.83 34.2667 945.923 33.04C949.07 31.76 952.75 31.12 956.963 31.12C960.056 31.12 963.07 31.4667 966.003 32.16C968.936 32.8 971.47 33.7867 973.603 35.12L969.523 44.48C965.683 42.1333 961.336 40.96 956.483 40.96C953.87 40.96 951.923 41.36 950.643 42.16C949.416 42.9067 948.803 43.92 948.803 45.2C948.803 46.5867 949.55 47.6 951.043 48.24C952.536 48.88 954.91 49.52 958.163 50.16C961.683 50.9067 964.59 51.7067 966.883 52.56C969.23 53.36 971.23 54.6933 972.883 56.56C974.59 58.3733 975.443 60.8533 975.443 64C975.443 66.9333 974.616 69.52 972.963 71.76C971.363 74 968.99 75.76 965.843 77.04C962.696 78.2667 958.963 78.88 954.643 78.88ZM991.284 41.84H976.804V32H1018.4V41.84H1003.92V78H991.284V41.84ZM1052.82 68.88H1031.3L1027.46 78H1015.22L1035.86 32H1048.34L1069.06 78H1056.58L1052.82 68.88ZM1048.98 59.76L1042.1 43.12L1035.14 59.76H1048.98ZM1118.52 32V78H1108.12L1086.92 52.64V78H1074.52V32H1084.92L1106.12 57.44V32H1118.52Z" fill="white" fill-opacity="0.8"/>
<path d="M215.474 135.56H197.554V125H246.354V135.56H228.434V181H215.474V135.56ZM272.671 181.88C267.765 181.88 263.338 180.867 259.391 178.84C255.498 176.76 252.431 173.907 250.191 170.28C247.951 166.653 246.831 162.573 246.831 158.04C246.831 153.507 247.951 149.427 250.191 145.8C252.431 142.12 255.498 139.267 259.391 137.24C263.338 135.16 267.765 134.12 272.671 134.12C277.578 134.12 281.978 135.16 285.871 137.24C289.818 139.267 292.911 142.12 295.151 145.8C297.391 149.427 298.511 153.507 298.511 158.04C298.511 162.573 297.391 166.653 295.151 170.28C292.911 173.907 289.818 176.76 285.871 178.84C281.978 180.867 277.578 181.88 272.671 181.88ZM272.671 171.56C275.125 171.56 277.338 170.973 279.311 169.8C281.338 168.627 282.911 167.027 284.031 165C285.151 162.92 285.711 160.6 285.711 158.04C285.711 155.427 285.151 153.107 284.031 151.08C282.911 149 281.338 147.373 279.311 146.2C277.338 145.027 275.125 144.44 272.671 144.44C270.218 144.44 267.978 145.027 265.951 146.2C263.978 147.373 262.405 149 261.231 151.08C260.111 153.107 259.551 155.427 259.551 158.04C259.551 160.6 260.111 162.92 261.231 165C262.405 167.027 263.978 168.627 265.951 169.8C267.978 170.973 270.218 171.56 272.671 171.56ZM328.737 181.88C321.91 181.88 316.577 180.04 312.737 176.36C308.897 172.68 306.977 167.613 306.977 161.16V135H319.617V160.76C319.617 164.333 320.39 167.027 321.937 168.84C323.537 170.653 325.857 171.56 328.897 171.56C331.884 171.56 334.15 170.653 335.697 168.84C337.244 167.027 338.017 164.333 338.017 160.76V135H350.497V161.16C350.497 167.613 348.577 172.68 344.737 176.36C340.897 180.04 335.564 181.88 328.737 181.88ZM382.701 168.68H374.941V181H362.301V135H383.261C389.607 135 394.647 136.52 398.381 139.56C402.114 142.547 403.981 146.68 403.981 151.96C403.981 155.32 403.154 158.253 401.501 160.76C399.901 163.213 397.607 165.133 394.621 166.52L404.861 181H391.261L382.701 168.68ZM391.261 151.96C391.261 149.667 390.514 147.907 389.021 146.68C387.527 145.453 385.314 144.84 382.381 144.84H374.941V159.08H382.381C385.314 159.08 387.527 158.467 389.021 157.24C390.514 156.013 391.261 154.253 391.261 151.96ZM458.761 181.88C453.908 181.88 449.535 180.867 445.641 178.84C441.748 176.76 438.681 173.907 436.441 170.28C434.201 166.653 433.081 162.573 433.081 158.04C433.081 153.507 434.201 149.427 436.441 145.8C438.681 142.12 441.748 139.267 445.641 137.24C449.535 135.16 453.908 134.12 458.761 134.12C463.188 134.12 467.001 134.787 470.201 136.12C473.455 137.453 476.255 139.587 478.601 142.52L470.441 149.96C467.401 146.28 463.668 144.44 459.241 144.44C455.348 144.44 452.121 145.693 449.561 148.2C447.055 150.707 445.801 153.987 445.801 158.04C445.801 160.707 446.361 163.08 447.481 165.16C448.655 167.187 450.255 168.76 452.281 169.88C454.361 171 456.681 171.56 459.241 171.56C463.668 171.56 467.401 169.72 470.441 166.04L478.601 173.48C476.308 176.36 473.508 178.493 470.201 179.88C466.948 181.213 463.135 181.88 458.761 181.88ZM507.828 181.88C502.921 181.88 498.494 180.867 494.548 178.84C490.654 176.76 487.588 173.907 485.348 170.28C483.108 166.653 481.988 162.573 481.988 158.04C481.988 153.507 483.108 149.427 485.348 145.8C487.588 142.12 490.654 139.267 494.548 137.24C498.494 135.16 502.921 134.12 507.828 134.12C512.734 134.12 517.134 135.16 521.028 137.24C524.974 139.267 528.068 142.12 530.308 145.8C532.548 149.427 533.668 153.507 533.668 158.04C533.668 162.573 532.548 166.653 530.308 170.28C528.068 173.907 524.974 176.76 521.028 178.84C517.134 180.867 512.734 181.88 507.828 181.88ZM507.828 171.56C510.281 171.56 512.494 170.973 514.468 169.8C516.494 168.627 518.068 167.027 519.188 165C520.308 162.92 520.868 160.6 520.868 158.04C520.868 155.427 520.308 153.107 519.188 151.08C518.068 149 516.494 147.373 514.468 146.2C512.494 145.027 510.281 144.44 507.828 144.44C505.374 144.44 503.134 145.027 501.108 146.2C499.134 147.373 497.561 149 496.388 151.08C495.268 153.107 494.708 155.427 494.708 158.04C494.708 160.6 495.268 162.92 496.388 165C497.561 167.027 499.134 168.627 501.108 169.8C503.134 170.973 505.374 171.56 507.828 171.56ZM542.613 135H564.293C569.52 135 574.106 135.933 578.053 137.8C582 139.667 585.04 142.333 587.173 145.8C589.36 149.267 590.453 153.347 590.453 158.04C590.453 162.68 589.36 166.733 587.173 170.2C585.04 173.667 582 176.333 578.053 178.2C574.106 180.067 569.52 181 564.293 181H542.613V135ZM563.893 171.08C568.16 171.08 571.52 169.96 573.973 167.72C576.426 165.427 577.653 162.2 577.653 158.04C577.653 153.88 576.426 150.653 573.973 148.36C571.52 146.067 568.16 144.92 563.893 144.92H555.253V171.08H563.893ZM636.45 171.32V181H599.41V135H635.57V144.68H611.89V153.08H632.85V162.28H611.89V171.32H636.45ZM705.036 159.48H715.436V168.2H703.996L702.396 181H693.356L694.956 168.2H683.196L681.596 181H672.636L674.236 168.2H663.756V159.48H675.276L676.956 146.52H666.476V137.8H677.996L679.596 125H688.556L686.956 137.8H698.716L700.316 125H709.276L707.676 137.8H718.076L718.156 146.52H706.636L705.036 159.48ZM695.996 159.48L697.676 146.52H685.916L684.236 159.48H695.996ZM774.134 169.24H765.014V181H752.374V169.24H722.214V160.52L748.614 125H762.214L737.734 158.68H752.774V148.2H765.014V158.68H774.134V169.24ZM817.112 151.56C819.885 152.947 821.992 154.76 823.432 157C824.925 159.24 825.672 161.827 825.672 164.76C825.672 168.227 824.685 171.267 822.712 173.88C820.739 176.44 817.965 178.44 814.392 179.88C810.819 181.267 806.685 181.96 801.992 181.96C797.299 181.96 793.165 181.267 789.592 179.88C786.072 178.44 783.325 176.44 781.352 173.88C779.432 171.267 778.472 168.227 778.472 164.76C778.472 161.827 779.192 159.24 780.632 157C782.125 154.76 784.232 152.947 786.952 151.56C784.872 150.28 783.272 148.68 782.152 146.76C781.032 144.787 780.472 142.547 780.472 140.04C780.472 136.787 781.379 133.96 783.192 131.56C785.005 129.16 787.539 127.32 790.792 126.04C794.045 124.707 797.779 124.04 801.992 124.04C806.259 124.04 810.019 124.707 813.272 126.04C816.579 127.32 819.139 129.16 820.952 131.56C822.765 133.96 823.672 136.787 823.672 140.04C823.672 142.547 823.112 144.787 821.992 146.76C820.872 148.68 819.245 150.28 817.112 151.56ZM801.992 133.56C799.379 133.56 797.272 134.2 795.672 135.48C794.125 136.707 793.352 138.413 793.352 140.6C793.352 142.733 794.125 144.413 795.672 145.64C797.219 146.867 799.325 147.48 801.992 147.48C804.659 147.48 806.792 146.867 808.392 145.64C809.992 144.413 810.792 142.733 810.792 140.6C810.792 138.413 809.992 136.707 808.392 135.48C806.792 134.2 804.659 133.56 801.992 133.56ZM801.992 172.44C805.245 172.44 807.805 171.72 809.672 170.28C811.592 168.787 812.552 166.813 812.552 164.36C812.552 161.907 811.592 159.96 809.672 158.52C807.805 157.08 805.245 156.36 801.992 156.36C798.792 156.36 796.259 157.08 794.392 158.52C792.525 159.96 791.592 161.907 791.592 164.36C791.592 166.867 792.525 168.84 794.392 170.28C796.259 171.72 798.792 172.44 801.992 172.44ZM858.564 145.88C862.138 145.88 865.391 146.6 868.324 148.04C871.258 149.48 873.578 151.533 875.284 154.2C876.991 156.813 877.844 159.853 877.844 163.32C877.844 167.053 876.911 170.333 875.044 173.16C873.178 175.987 870.618 178.173 867.364 179.72C864.164 181.213 860.591 181.96 856.644 181.96C848.804 181.96 842.671 179.56 838.244 174.76C833.818 169.96 831.604 163.107 831.604 154.2C831.604 147.853 832.804 142.413 835.204 137.88C837.604 133.347 840.938 129.907 845.204 127.56C849.524 125.213 854.511 124.04 860.164 124.04C863.151 124.04 866.004 124.387 868.724 125.08C871.498 125.72 873.844 126.653 875.764 127.88L870.964 137.4C868.191 135.533 864.698 134.6 860.484 134.6C855.738 134.6 851.978 135.987 849.204 138.76C846.431 141.533 844.938 145.56 844.724 150.84C848.031 147.533 852.644 145.88 858.564 145.88ZM855.924 172.28C858.698 172.28 860.938 171.533 862.644 170.04C864.404 168.547 865.284 166.52 865.284 163.96C865.284 161.4 864.404 159.373 862.644 157.88C860.938 156.333 858.644 155.56 855.764 155.56C852.938 155.56 850.618 156.36 848.804 157.96C846.991 159.507 846.084 161.507 846.084 163.96C846.084 166.413 846.964 168.413 848.724 169.96C850.484 171.507 852.884 172.28 855.924 172.28ZM908.702 147.8C913.609 148.6 917.369 150.44 919.982 153.32C922.595 156.147 923.902 159.667 923.902 163.88C923.902 167.133 923.049 170.147 921.342 172.92C919.635 175.64 917.022 177.827 913.502 179.48C910.035 181.133 905.769 181.96 900.702 181.96C896.755 181.96 892.862 181.453 889.022 180.44C885.235 179.373 882.009 177.88 879.342 175.96L884.382 166.04C886.515 167.64 888.969 168.893 891.742 169.8C894.569 170.653 897.449 171.08 900.382 171.08C903.635 171.08 906.195 170.467 908.062 169.24C909.929 167.96 910.862 166.173 910.862 163.88C910.862 159.293 907.369 157 900.382 157H894.462V148.44L905.982 135.4H882.142V125H921.342V133.4L908.702 147.8Z" fill="white" fill-opacity="0.8"/>
</svg>
