<svg  width="1280" height="594" viewBox="0 0 1280 594" fill="none" xmlns="http://www.w3.org/2000/svg">
<path d="M22.8 13.2H0.4V-4.76837e-06H61.4V13.2H39V70H22.8V13.2ZM94.6258 54.6H84.9258V70H69.1258V12.5H95.3258C103.259 12.5 109.559 14.4 114.226 18.2C118.892 21.9333 121.226 27.1 121.226 33.7C121.226 37.9 120.192 41.5667 118.126 44.7C116.126 47.7667 113.259 50.1667 109.526 51.9L122.326 70H105.326L94.6258 54.6ZM105.326 33.7C105.326 30.8333 104.392 28.6333 102.526 27.1C100.659 25.5667 97.8924 24.8 94.2258 24.8H84.9258V42.6H94.2258C97.8924 42.6 100.659 41.8333 102.526 40.3C104.392 38.7667 105.326 36.5667 105.326 33.7ZM171.881 58.6H144.981L140.181 70H124.881L150.681 12.5H166.281L192.181 70H176.581L171.881 58.6ZM167.081 47.2L158.481 26.4L149.781 47.2H167.081ZM252.7 12.5L227.7 70H212.1L187.1 12.5H203.9L220.3 51.6L237.1 12.5H252.7ZM306.344 57.9V70H260.044V12.5H305.244V24.6H275.644V35.1H301.844V46.6H275.644V57.9H306.344ZM317.856 12.5H333.656V57.7H361.756V70H317.856V12.5ZM417.718 71.1C413.051 71.1 408.485 70.5333 404.018 69.4C399.618 68.2667 396.085 66.7667 393.418 64.9L398.918 53.2C401.518 54.9333 404.551 56.3 408.018 57.3C411.485 58.3 415.018 58.8 418.618 58.8C421.951 58.8 424.351 58.3667 425.818 57.5C427.351 56.5667 428.118 55.3333 428.118 53.8C428.118 52.0667 427.185 50.8 425.318 50C423.451 49.1333 420.485 48.3 416.418 47.5C411.951 46.5667 408.285 45.6 405.418 44.6C402.551 43.5333 400.051 41.8333 397.918 39.5C395.851 37.1667 394.818 33.9667 394.818 29.9C394.818 26.3 395.851 23.1 397.918 20.3C399.985 17.5 402.951 15.3333 406.818 13.8C410.751 12.2 415.351 11.4 420.618 11.4C424.485 11.4 428.251 11.8333 431.918 12.7C435.585 13.5 438.751 14.7333 441.418 16.4L436.318 28.1C431.518 25.1667 426.085 23.7 420.018 23.7C416.751 23.7 414.318 24.2 412.718 25.2C411.185 26.1333 410.418 27.4 410.418 29C410.418 30.7333 411.351 32 413.218 32.8C415.085 33.6 418.051 34.4 422.118 35.2C426.518 36.1333 430.151 37.1333 433.018 38.2C435.951 39.2 438.451 40.8667 440.518 43.2C442.651 45.4667 443.718 48.5667 443.718 52.5C443.718 56.1667 442.685 59.4 440.618 62.2C438.618 65 435.651 67.2 431.718 68.8C427.785 70.3333 423.118 71.1 417.718 71.1ZM463.52 24.8H445.42V12.5H497.42V24.8H479.32V70H463.52V24.8ZM532.675 71.1C526.542 71.1 521.008 69.8333 516.075 67.3C511.208 64.7 507.375 61.1333 504.575 56.6C501.775 52.0667 500.375 46.9667 500.375 41.3C500.375 35.6333 501.775 30.5333 504.575 26C507.375 21.4 511.208 17.8333 516.075 15.3C521.008 12.7 526.542 11.4 532.675 11.4C538.808 11.4 544.308 12.7 549.175 15.3C554.108 17.8333 557.975 21.4 560.775 26C563.575 30.5333 564.975 35.6333 564.975 41.3C564.975 46.9667 563.575 52.0667 560.775 56.6C557.975 61.1333 554.108 64.7 549.175 67.3C544.308 69.8333 538.808 71.1 532.675 71.1ZM532.675 58.2C535.742 58.2 538.508 57.4667 540.975 56C543.508 54.5333 545.475 52.5333 546.875 50C548.275 47.4 548.975 44.5 548.975 41.3C548.975 38.0333 548.275 35.1333 546.875 32.6C545.475 30 543.508 27.9667 540.975 26.5C538.508 25.0333 535.742 24.3 532.675 24.3C529.608 24.3 526.808 25.0333 524.275 26.5C521.808 27.9667 519.842 30 518.375 32.6C516.975 35.1333 516.275 38.0333 516.275 41.3C516.275 44.5 516.975 47.4 518.375 50C519.842 52.5333 521.808 54.5333 524.275 56C526.808 57.4667 529.608 58.2 532.675 58.2ZM601.657 54.6H591.957V70H576.157V12.5H602.357C610.29 12.5 616.59 14.4 621.257 18.2C625.924 21.9333 628.257 27.1 628.257 33.7C628.257 37.9 627.224 41.5667 625.157 44.7C623.157 47.7667 620.29 50.1667 616.557 51.9L629.357 70H612.357L601.657 54.6ZM612.357 33.7C612.357 30.8333 611.424 28.6333 609.557 27.1C607.69 25.5667 604.924 24.8 601.257 24.8H591.957V42.6H601.257C604.924 42.6 607.69 41.8333 609.557 40.3C611.424 38.7667 612.357 36.5667 612.357 33.7ZM640.513 12.5H656.313V70H640.513V12.5ZM717.867 57.9V70H671.567V12.5H716.767V24.6H687.167V35.1H713.367V46.6H687.167V57.9H717.867ZM748.48 71.1C743.813 71.1 739.246 70.5333 734.78 69.4C730.38 68.2667 726.846 66.7667 724.18 64.9L729.68 53.2C732.28 54.9333 735.313 56.3 738.78 57.3C742.246 58.3 745.78 58.8 749.38 58.8C752.713 58.8 755.113 58.3667 756.58 57.5C758.113 56.5667 758.88 55.3333 758.88 53.8C758.88 52.0667 757.946 50.8 756.08 50C754.213 49.1333 751.246 48.3 747.18 47.5C742.713 46.5667 739.046 45.6 736.18 44.6C733.313 43.5333 730.813 41.8333 728.68 39.5C726.613 37.1667 725.58 33.9667 725.58 29.9C725.58 26.3 726.613 23.1 728.68 20.3C730.746 17.5 733.713 15.3333 737.58 13.8C741.513 12.2 746.113 11.4 751.38 11.4C755.246 11.4 759.013 11.8333 762.68 12.7C766.346 13.5 769.513 14.7333 772.18 16.4L767.08 28.1C762.28 25.1667 756.846 23.7 750.78 23.7C747.513 23.7 745.08 24.2 743.48 25.2C741.946 26.1333 741.18 27.4 741.18 29C741.18 30.7333 742.113 32 743.98 32.8C745.846 33.6 748.813 34.4 752.88 35.2C757.28 36.1333 760.913 37.1333 763.78 38.2C766.713 39.2 769.213 40.8667 771.28 43.2C773.413 45.4667 774.48 48.5667 774.48 52.5C774.48 56.1667 773.446 59.4 771.38 62.2C769.38 65 766.413 67.2 762.48 68.8C758.546 70.3333 753.88 71.1 748.48 71.1Z" fill="white" fill-opacity="0.8"/>
</svg>
