<svg width="52" height="34" viewBox="0 0 52 34" fill="none" xmlns="http://www.w3.org/2000/svg">
<g filter="url(#filter0_d_1428_3268)">
<path d="M35 23.6667C37.3833 23.6667 39.4236 22.8181 41.1208 21.1208C42.8181 19.4236 43.6667 17.3833 43.6667 15C43.6667 12.6167 42.8181 10.5764 41.1208 8.87917C39.4236 7.18195 37.3833 6.33333 35 6.33333C32.6167 6.33333 30.5764 7.18194 28.8792 8.87916C27.1819 10.5764 26.3333 12.6167 26.3333 15C26.3333 17.3833 27.1819 19.4236 28.8792 21.1208C30.5764 22.8181 32.6167 23.6667 35 23.6667ZM35 28C31.75 28 28.9247 26.9708 26.524 24.9125C24.1219 22.8542 22.6681 20.2722 22.1625 17.1667L4.66667 17.1667L4.66667 12.8333L22.1625 12.8333C22.6681 9.72777 24.1219 7.14583 26.524 5.0875C28.9247 3.02917 31.75 2 35 2C38.6111 2 41.6806 3.26389 44.2083 5.79167C46.7361 8.31944 48 11.3889 48 15C48 18.6111 46.7361 21.6806 44.2083 24.2083C41.6806 26.7361 38.6111 28 35 28Z" fill="#D25236"/>
<path d="M26.6867 24.7227L26.6867 24.7227C24.3291 22.7025 22.9053 20.1735 22.4093 17.1265L22.3751 16.9167L22.1625 16.9167L4.91667 16.9167L4.91667 13.0833L22.1625 13.0833L22.3751 13.0833L22.4093 12.8735C22.9053 9.82654 24.3291 7.29749 26.6867 5.27734L26.6867 5.27729C29.0407 3.25897 31.8079 2.25 35 2.25C38.5456 2.25 41.5512 3.48808 44.0316 5.96844C46.5119 8.4488 47.75 11.4544 47.75 15C47.75 18.5456 46.5119 21.5512 44.0316 24.0316C41.5512 26.5119 38.5456 27.75 35 27.75C31.8079 27.75 29.0407 26.741 26.6867 24.7227ZM35 23.9167C37.4502 23.9167 39.5539 23.0413 41.2976 21.2976C43.0413 19.5539 43.9167 17.4502 43.9167 15C43.9167 12.5498 43.0413 10.4461 41.2976 8.70239C39.5539 6.95866 37.4502 6.08333 35 6.08333C32.5498 6.08333 30.4461 6.95865 28.7024 8.70239C26.9587 10.4461 26.0833 12.5498 26.0833 15C26.0833 17.4502 26.9587 19.5539 28.7024 21.2976C30.4461 23.0413 32.5498 23.9167 35 23.9167Z" stroke="#333333" stroke-width="0.5"/>
</g>
<defs>
<filter id="filter0_d_1428_3268" x="0.666992" y="0" width="51.333" height="34" filterUnits="userSpaceOnUse" color-interpolation-filters="sRGB">
<feFlood flood-opacity="0" result="BackgroundImageFix"/>
<feColorMatrix in="SourceAlpha" type="matrix" values="0 0 0 0 0 0 0 0 0 0 0 0 0 0 0 0 0 0 127 0" result="hardAlpha"/>
<feOffset dy="2"/>
<feGaussianBlur stdDeviation="2"/>
<feComposite in2="hardAlpha" operator="out"/>
<feColorMatrix type="matrix" values="0 0 0 0 0 0 0 0 0 0 0 0 0 0 0 0 0 0 0.25 0"/>
<feBlend mode="normal" in2="BackgroundImageFix" result="effect1_dropShadow_1428_3268"/>
<feBlend mode="normal" in="SourceGraphic" in2="effect1_dropShadow_1428_3268" result="shape"/>
</filter>
</defs>
</svg>
