<svg width="51" height="51" viewBox="0 0 51 51" fill="none" xmlns="http://www.w3.org/2000/svg">
<g filter="url(#filter0_d_1428_3328)">
<path d="M37.3438 6.03215V6.28215H37.5938H43.4167C44.3004 6.28215 45.148 6.63311 45.7731 7.25787C46.3982 7.88263 46.7496 8.73005 46.75 9.61381V41.4158C46.75 42.2998 46.3988 43.1477 45.7737 43.7728C45.1486 44.3979 44.3007 44.7491 43.4167 44.7491H7.58333C6.69928 44.7491 5.85143 44.3979 5.22631 43.7728C4.60119 43.1477 4.25 42.2998 4.25 41.4158V9.61369C4.25046 8.72994 4.60184 7.88261 5.2269 7.25787C5.85197 6.63311 6.69957 6.28215 7.58333 6.28215H13.4062H13.6562V6.03215V3.34302C13.6564 3.05294 13.7719 2.77482 13.9771 2.56984C14.1824 2.36486 14.4606 2.24981 14.7507 2.25C14.8944 2.2501 15.0366 2.27848 15.1692 2.33354C15.3019 2.38859 15.4224 2.46924 15.5239 2.57087C15.6254 2.6725 15.7059 2.79313 15.7608 2.92586C15.8156 3.0586 15.8438 3.20085 15.8438 3.34448V3.34465V6.03215V6.28215H16.0938H24.1562H24.4062V6.03215V3.34302C24.4064 3.05294 24.5219 2.77482 24.7271 2.56984C24.9324 2.36486 25.2106 2.24981 25.5007 2.25C25.6444 2.2501 25.7866 2.27848 25.9192 2.33354C26.0519 2.38859 26.1724 2.46924 26.2739 2.57087C26.3754 2.6725 26.4559 2.79313 26.5108 2.92586C26.5656 3.0586 26.5938 3.20085 26.5938 3.34448V3.34465V6.03215V6.28215H26.8438H34.9062H35.1562V6.03215V3.34302C35.1564 3.05294 35.2719 2.77482 35.4771 2.56984C35.6824 2.36486 35.9606 2.24981 36.2507 2.25C36.5408 2.25019 36.8189 2.36561 37.0239 2.57087C37.2289 2.77612 37.3439 3.0544 37.3438 3.34448V3.34465V6.03215ZM43.4185 42.5634H43.419C43.7225 42.5628 44.0133 42.4418 44.2277 42.227C44.4421 42.0122 44.5625 41.7211 44.5625 41.4176L44.5607 9.61547V9.61498C44.5601 9.31188 44.4394 9.02137 44.2251 8.80704C44.0108 8.59272 43.7203 8.47204 43.4172 8.47144H43.4167H37.5938H37.3438V8.72144V11.4106C37.3436 11.7006 37.2281 11.9788 37.0229 12.1837C36.8176 12.3887 36.5393 12.5038 36.2493 12.5036C35.9592 12.5034 35.6811 12.388 35.4761 12.1827C35.2711 11.9775 35.1561 11.6992 35.1562 11.4091V11.4089V8.72144V8.47144H34.9062H26.8438H26.5938V8.72144V11.4106C26.5936 11.7006 26.4781 11.9788 26.2729 12.1837C26.0676 12.3887 25.7894 12.5038 25.4993 12.5036C25.2092 12.5034 24.9311 12.388 24.7261 12.1827C24.5211 11.9775 24.4061 11.6992 24.4062 11.4091V11.4089V8.72144V8.47144H24.1562H16.0938H15.8438V8.72144V11.4106C15.8436 11.7006 15.7281 11.9788 15.5229 12.1837C15.3176 12.3887 15.0394 12.5038 14.7493 12.5036C14.4592 12.5034 14.1811 12.388 13.9761 12.1827C13.7711 11.9775 13.6561 11.6992 13.6562 11.4091V11.4089V8.72144V8.47144H13.4062H7.58333C7.27984 8.47144 6.98874 8.59184 6.77392 8.80623C6.5591 9.02062 6.43811 9.31148 6.4375 9.61498V9.61548V41.4176C6.4375 41.7215 6.55822 42.0129 6.77311 42.2278C6.98799 42.4427 7.27944 42.5634 7.58333 42.5634H43.4185ZM13.4062 8.97144V11.4089V8.97144ZM34.9062 8.97144V11.4089L26.8438 8.97144V8.72144H27.0938H34.6562H34.9062V8.97144Z" fill="#36D28F" stroke="#333333" stroke-width="0.5"/>
<path d="M13.6553 18.3767H18.5305V21.9082H13.6553V18.3767ZM13.6553 25.0958H18.5305V28.6273H13.6553V25.0958ZM13.6553 31.8149H18.5305V35.3463H13.6553V31.8149ZM23.062 31.8149H27.9372V35.3463H23.062V31.8149ZM23.062 25.0958H27.9372V28.6273H23.062V25.0958ZM23.062 18.3767H27.9372V21.9082H23.062V18.3767ZM32.4687 31.8149H37.3439V35.3463H32.4687V31.8149ZM32.4687 25.0958H37.3439V28.6273H32.4687V25.0958ZM32.4687 18.3767H37.3439V21.9082H32.4687V18.3767Z" fill="#36D28F" stroke="#333333" stroke-width="0.5"/>
</g>
<defs>
<filter id="filter0_d_1428_3328" x="0" y="0" width="51" height="50.9991" filterUnits="userSpaceOnUse" color-interpolation-filters="sRGB">
<feFlood flood-opacity="0" result="BackgroundImageFix"/>
<feColorMatrix in="SourceAlpha" type="matrix" values="0 0 0 0 0 0 0 0 0 0 0 0 0 0 0 0 0 0 127 0" result="hardAlpha"/>
<feOffset dy="2"/>
<feGaussianBlur stdDeviation="2"/>
<feComposite in2="hardAlpha" operator="out"/>
<feColorMatrix type="matrix" values="0 0 0 0 0 0 0 0 0 0 0 0 0 0 0 0 0 0 0.25 0"/>
<feBlend mode="normal" in2="BackgroundImageFix" result="effect1_dropShadow_1428_3328"/>
<feBlend mode="normal" in="SourceGraphic" in2="effect1_dropShadow_1428_3328" result="shape"/>
</filter>
</defs>
</svg>
