<svg width="43" height="50" viewBox="0 0 43 50" fill="none" xmlns="http://www.w3.org/2000/svg">
<path d="M31.9342 6.78947V0.25H35.9605V6.78947V7.03947H36.2105H42.75V11.0658H36.2105H35.9605V11.3158V17.8553H31.9342V11.3158V11.0658H31.6842H25.1447V7.03947H31.6842H31.9342V6.78947ZM20.1184 4.88496V8.94395C19.4516 8.85184 18.7793 8.80461 18.106 8.80263H18.1053C10.3824 8.80263 4.27632 14.7341 4.27632 23.0842C4.27632 25.7993 5.40622 28.925 7.66896 32.4088C9.93333 35.8951 13.3442 39.7585 17.9366 43.954L18.1053 44.1081L18.2739 43.954C22.8662 39.7586 26.2771 35.9008 28.5415 32.4174C30.8044 28.9363 31.9342 25.8105 31.9342 23.0842V22.8816H35.9605V23.0842C35.9605 26.7737 34.4765 30.8269 31.4745 35.2526C28.5 39.6376 24.0456 44.3729 18.1053 49.4605C12.1649 44.3729 7.71049 39.6376 4.73604 35.2526C1.734 30.8269 0.25 26.7737 0.25 23.0842C0.25 11.9594 8.7303 4.77632 18.1053 4.77632C18.7892 4.77632 19.4547 4.81254 20.1184 4.88496ZM18.1053 26.9079C15.7539 26.9079 13.8289 24.983 13.8289 22.6316C13.8289 20.2802 15.7539 18.3553 18.1053 18.3553C20.4567 18.3553 22.3816 20.2802 22.3816 22.6316C22.3816 24.983 20.4567 26.9079 18.1053 26.9079Z" fill="#36D28F" stroke="#333333" stroke-width="0.5"/>
</svg>
