<svg width="43" height="50" viewBox="0 0 43 50" fill="none" xmlns="http://www.w3.org/2000/svg">
<path d="M18.3859 43.9731L18.5545 44.1272L18.7231 43.9731C23.4292 39.6737 26.9243 35.7148 29.2445 32.1426C31.5631 28.573 32.7203 25.3708 32.7203 22.5901V22.3762H36.859V22.5901C36.859 26.3727 35.3375 30.5278 32.2605 35.0639C29.2112 39.5593 24.6445 44.4136 18.5545 49.629C12.4645 44.4136 7.89776 39.5593 4.84841 35.0639C1.77148 30.5278 0.25 26.3727 0.25 22.5901C0.25 11.1856 8.94367 3.82174 18.5545 3.82174C19.2575 3.82174 19.9416 3.85907 20.6238 3.93372V8.10646C19.9558 8.01436 19.2557 7.96036 18.5545 7.96036C10.6435 7.96036 4.38862 14.0362 4.38862 22.5901C4.38862 25.3824 5.54583 28.5845 7.86449 32.1514C10.1847 35.7207 13.6798 39.6738 18.3859 43.9731ZM34.9668 5.11649L39.707 0.35397L42.646 3.293L37.8835 8.03316L37.7055 8.21036L37.8835 8.38755L42.646 13.1277L39.707 16.0667L34.9668 11.3042L34.7896 11.1262L34.6124 11.3042L29.8723 16.0667L26.9333 13.1277L31.6958 8.38755L31.8738 8.21036L31.6958 8.03316L26.9333 3.293L29.8723 0.35397L34.6124 5.11649L34.7896 5.29452L34.9668 5.11649ZM22.9431 22.1262C22.9431 24.55 20.9782 26.5148 18.5545 26.5148C16.1307 26.5148 14.1659 24.55 14.1659 22.1262C14.1659 19.7024 16.1307 17.7376 18.5545 17.7376C20.9782 17.7376 22.9431 19.7024 22.9431 22.1262Z" fill="#D25236" stroke="#333333" stroke-width="0.5"/>
</svg>
