<svg width="52" height="34" viewBox="0 0 52 34" fill="none" xmlns="http://www.w3.org/2000/svg">
<g filter="url(#filter0_d_1428_3254)">
<path d="M17.333 6.33333C14.9497 6.33333 12.9094 7.18194 11.2122 8.87917C9.51495 10.5764 8.66634 12.6167 8.66634 15C8.66634 17.3833 9.51495 19.4236 11.2122 21.1208C12.9094 22.8181 14.9497 23.6667 17.333 23.6667C19.7163 23.6667 21.7566 22.8181 23.4538 21.1208C25.1511 19.4236 25.9997 17.3833 25.9997 15C25.9997 12.6167 25.1511 10.5764 23.4538 8.87917C21.7566 7.18195 19.7163 6.33333 17.333 6.33333ZM17.333 2C20.583 2 23.4083 3.02917 25.809 5.0875C28.2111 7.14583 29.665 9.72778 30.1705 12.8333L47.6663 12.8333L47.6663 17.1667L30.1705 17.1667C29.6649 20.2722 28.2111 22.8542 25.809 24.9125C23.4083 26.9708 20.583 28 17.333 28C13.7219 28 10.6525 26.7361 8.12467 24.2083C5.5969 21.6806 4.33301 18.6111 4.33301 15C4.33301 11.3889 5.5969 8.31944 8.12468 5.79167C10.6525 3.26389 13.7219 2 17.333 2Z" fill="#36D28F"/>
<path d="M25.6463 5.27729L25.6463 5.27734C28.0039 7.2975 29.4277 9.82654 29.9238 12.8735L29.9579 13.0833H30.1705L47.4163 13.0833L47.4163 16.9167L30.1705 16.9167H29.9579L29.9238 17.1265C29.4277 20.1735 28.0039 22.7025 25.6463 24.7227L25.6463 24.7227C23.2923 26.741 20.5251 27.75 17.333 27.75C13.7874 27.75 10.7818 26.5119 8.30145 24.0316C5.82109 21.5512 4.58301 18.5456 4.58301 15C4.58301 11.4544 5.82109 8.4488 8.30145 5.96844C10.7818 3.48808 13.7874 2.25 17.333 2.25C20.5251 2.25 23.2923 3.25897 25.6463 5.27729ZM17.333 6.08333C14.8828 6.08333 12.7791 6.95866 11.0354 8.70239C9.29166 10.4461 8.41634 12.5498 8.41634 15C8.41634 17.4502 9.29166 19.5539 11.0354 21.2976C12.7791 23.0413 14.8828 23.9167 17.333 23.9167C19.7832 23.9167 21.8869 23.0413 23.6306 21.2976C25.3743 19.5539 26.2497 17.4502 26.2497 15C26.2497 12.5498 25.3743 10.4461 23.6306 8.70239C21.8869 6.95866 19.7832 6.08333 17.333 6.08333Z" stroke="#333333" stroke-width="0.5"/>
</g>
<defs>
<filter id="filter0_d_1428_3254" x="0.333008" y="0" width="51.333" height="34" filterUnits="userSpaceOnUse" color-interpolation-filters="sRGB">
<feFlood flood-opacity="0" result="BackgroundImageFix"/>
<feColorMatrix in="SourceAlpha" type="matrix" values="0 0 0 0 0 0 0 0 0 0 0 0 0 0 0 0 0 0 127 0" result="hardAlpha"/>
<feOffset dy="2"/>
<feGaussianBlur stdDeviation="2"/>
<feComposite in2="hardAlpha" operator="out"/>
<feColorMatrix type="matrix" values="0 0 0 0 0 0 0 0 0 0 0 0 0 0 0 0 0 0 0.25 0"/>
<feBlend mode="normal" in2="BackgroundImageFix" result="effect1_dropShadow_1428_3254"/>
<feBlend mode="normal" in="SourceGraphic" in2="effect1_dropShadow_1428_3254" result="shape"/>
</filter>
</defs>
</svg>
