<svg width="51" height="51" viewBox="0 0 51 51" fill="none" xmlns="http://www.w3.org/2000/svg">
<g filter="url(#filter0_d_1428_3343)">
<path d="M25.7508 2C25.4134 2 25.0759 2.00911 24.7385 2.0246L24.8115 3.6627C25.1215 3.64812 25.4316 3.63992 25.7508 3.63992C36.5852 3.63992 45.3584 12.4044 45.3584 23.2278C45.3584 34.0513 36.5852 42.8158 25.7508 42.8158C17.5794 42.8158 10.58 37.8322 7.63425 30.735L10.1541 29.9789L5.73733 26.8539L4 31.8192L6.05652 31.2088C9.21472 38.9711 16.8498 44.4557 25.7508 44.4557C37.4789 44.4557 47 34.9442 47 23.2278C47 11.5115 37.4789 2 25.7508 2ZM22.9419 2.18586C21.729 2.34529 20.5616 2.60495 19.4216 2.95844L19.9323 4.51545C20.972 4.19294 22.0573 3.95515 23.1608 3.80938L22.9419 2.18586ZM17.7436 3.56339C16.6127 4.02348 15.5366 4.5765 14.5152 5.21424L15.3815 6.59997C16.3209 6.01325 17.315 5.50396 18.3546 5.08123L17.7436 3.56339ZM13.0195 6.23646C12.0621 6.95338 11.1668 7.74941 10.3428 8.61616L11.533 9.73495C12.2899 8.93595 13.1198 8.20345 13.9953 7.54293L13.5576 6.94436L13.0195 6.23646ZM19.3578 7.01815L18.9565 8.60705L38.7466 13.6617L39.1478 12.0764L19.3578 7.01815ZM9.15909 9.97183C8.41217 10.9011 7.74187 11.9033 7.1582 12.951L8.58545 13.7528C9.12443 12.7779 9.74276 11.8577 10.4331 10.9922L9.15909 9.97183ZM20.7987 10.7736C20.4431 13.1423 21.0541 15.8027 22.0937 17.9892C22.6774 19.21 23.3888 20.2851 24.091 21.0686C24.474 21.4968 24.8571 21.8248 25.2036 22.0617L24.7111 23.9931C24.2916 24.0296 23.7992 24.1389 23.252 24.3302C22.2579 24.6764 21.1179 25.2778 20.0235 26.0704C18.0537 27.4916 16.2479 29.5233 15.4271 31.7737L30.7029 35.6821C31.0585 33.3134 30.4475 30.653 29.4078 28.4665C28.8242 27.2457 28.1128 26.1706 27.4106 25.3871C27.0276 24.9589 26.6445 24.6309 26.298 24.394L26.7905 22.4626C27.2008 22.417 27.7024 22.3168 28.2496 22.1255C29.2437 21.7793 30.3837 21.1779 31.478 20.3853C33.4479 18.9641 35.2537 16.9324 36.0744 14.682L20.7987 10.7736ZM6.34744 14.5636C5.86136 15.6569 5.46282 16.7866 5.16187 17.9619L6.75601 18.3445C7.03234 17.2695 7.39805 16.2309 7.84583 15.2287L6.34744 14.5636ZM4.79343 19.7202C4.60282 20.8591 4.50159 22.0344 4.50159 23.2278V23.3098L6.14316 23.2916V23.2278C6.14316 22.1255 6.23618 21.0413 6.4122 19.9845L4.79343 19.7202ZM12.755 32.794L12.3538 34.3793L32.1438 39.4357L32.5451 37.8505L12.755 32.794Z" fill="#D25236"/>
<path d="M5.86374 27.2496L9.59109 29.8868L7.56239 30.4956L7.29722 30.5752L7.40335 30.8309C10.3865 38.0184 17.4752 43.0658 25.7508 43.0658C36.723 43.0658 45.6084 34.1896 45.6084 23.2278C45.6084 12.2661 36.723 3.38992 25.7508 3.38992C25.5133 3.38992 25.2809 3.3944 25.0501 3.40261L24.9994 2.2641C25.2503 2.25507 25.5007 2.25 25.7508 2.25C37.3411 2.25 46.75 11.6498 46.75 23.2278C46.75 34.8059 37.3411 44.2057 25.7508 44.2057C16.955 44.2057 9.40928 38.7859 6.28809 31.1146L6.20267 30.9046L5.98538 30.9691L4.39738 31.4405L5.86374 27.2496ZM24.2773 20.9019L24.2772 20.9018C23.5931 20.1385 22.8944 19.0842 22.3194 17.8815C21.3348 15.8106 20.7474 13.3218 21.0093 11.0855L35.7406 14.8547C34.9011 16.9429 33.1976 18.8364 31.3318 20.1826L31.3314 20.1828C30.2536 20.9635 29.1351 21.5523 28.1674 21.8894L28.1671 21.8895C27.639 22.0741 27.1559 22.1705 26.7629 22.2141L26.5909 22.2332L26.5482 22.4008L26.0557 24.3322L26.0125 24.5017L26.1569 24.6004C26.486 24.8253 26.8539 25.1398 27.2243 25.5538L27.2244 25.5539C27.9085 26.3172 28.6073 27.3716 29.1823 28.5743C30.1669 30.6452 30.7541 33.1339 30.4923 35.3702L15.761 31.601C16.6005 29.5128 18.3039 27.6193 20.1698 26.2731L20.1702 26.2729C21.248 25.4922 22.3665 24.9033 23.3342 24.5663L23.3345 24.5662C23.8665 24.3802 24.3383 24.2765 24.7328 24.2422L24.9095 24.2268L24.9534 24.0549L25.4459 22.1235L25.4891 21.954L25.3447 21.8553C25.0156 21.6304 24.6476 21.3159 24.2773 20.9019ZM22.8797 3.59591C21.9307 3.73333 20.9964 3.93795 20.0937 4.2053L19.7388 3.12339C20.7105 2.83462 21.7029 2.61474 22.7276 2.46766L22.8797 3.59591ZM15.4619 6.2569L14.8605 5.29506C15.7358 4.76279 16.6509 4.29305 17.6059 3.89093L18.0303 4.94494C17.1381 5.32093 16.2801 5.76015 15.4619 6.2569ZM10.6983 8.60723C11.4064 7.87989 12.1661 7.20456 12.9716 6.58651L13.3571 7.09377L13.649 7.49284C12.9005 8.07114 12.1864 8.7024 11.524 9.38336L10.6983 8.60723ZM38.5657 13.3574L19.26 8.42653L19.5388 7.32245L38.8443 12.2568L38.5657 13.3574ZM8.48985 13.4123L7.49907 12.8558C8.00525 11.9711 8.57398 11.1214 9.19881 10.3239L10.0833 11.0323C9.49749 11.7853 8.96479 12.5787 8.48985 13.4123ZM7.51675 15.3561C7.14122 16.2252 6.8263 17.1213 6.57663 18.0444L5.46853 17.7784C5.73558 16.7865 6.07333 15.827 6.47566 14.894L7.51675 15.3561ZM6.12593 20.191C5.98248 21.1237 5.90295 22.0769 5.89401 23.0444L4.75229 23.057C4.76076 22.0219 4.8461 21.0012 5.00035 20.0073L6.12593 20.191ZM31.9629 39.1315L12.6573 34.1988L12.9359 33.0983L32.2415 38.0309L31.9629 39.1315Z" stroke="#333333" stroke-width="0.5"/>
</g>
<defs>
<filter id="filter0_d_1428_3343" x="0" y="0" width="51" height="50.4557" filterUnits="userSpaceOnUse" color-interpolation-filters="sRGB">
<feFlood flood-opacity="0" result="BackgroundImageFix"/>
<feColorMatrix in="SourceAlpha" type="matrix" values="0 0 0 0 0 0 0 0 0 0 0 0 0 0 0 0 0 0 127 0" result="hardAlpha"/>
<feOffset dy="2"/>
<feGaussianBlur stdDeviation="2"/>
<feComposite in2="hardAlpha" operator="out"/>
<feColorMatrix type="matrix" values="0 0 0 0 0 0 0 0 0 0 0 0 0 0 0 0 0 0 0.25 0"/>
<feBlend mode="normal" in2="BackgroundImageFix" result="effect1_dropShadow_1428_3343"/>
<feBlend mode="normal" in="SourceGraphic" in2="effect1_dropShadow_1428_3343" result="shape"/>
</filter>
</defs>
</svg>
