<svg width="24" height="24" viewBox="0 0 24 24" fill="none" xmlns="http://www.w3.org/2000/svg">
<path d="M21.1383 2.16248H18.0156V0.721228C18.0158 0.530106 17.94 0.346762 17.8049 0.211528C17.6698 0.0762946 17.4866 0.000249656 17.2955 0.000122241C17.1044 -5.173e-06 16.921 0.0757954 16.7858 0.210849C16.6505 0.345902 16.5745 0.529145 16.5744 0.720267V2.16248H12.2506V0.721228C12.2507 0.626594 12.2321 0.532874 12.196 0.44542C12.1598 0.357965 12.1068 0.278489 12.0399 0.211528C11.973 0.144567 11.8936 0.0914335 11.8062 0.0551604C11.7188 0.0188873 11.6251 0.00018532 11.5305 0.000122231C11.3394 -5.18373e-06 11.156 0.0757954 11.0208 0.210849C10.8855 0.345902 10.8095 0.529145 10.8094 0.720267V2.16248H6.48562V0.721228C6.48569 0.626594 6.46711 0.532874 6.43095 0.44542C6.3948 0.357965 6.34177 0.278489 6.2749 0.211528C6.20803 0.144567 6.12862 0.0914335 6.04121 0.0551604C5.95381 0.0188873 5.86011 0.00018532 5.76548 0.000122231C5.57436 -5.18373e-06 5.39101 0.0757954 5.25578 0.210849C5.12055 0.345902 5.0445 0.529145 5.04437 0.720267V2.16248H1.92167C1.41218 2.16248 0.923537 2.36481 0.563183 2.72498C0.202828 3.08516 0.000254746 3.57369 0 4.08318V21.138C0 21.6476 0.202461 22.1364 0.562843 22.4968C0.923226 22.8572 1.41201 23.0596 1.92167 23.0596H21.1383C21.648 23.0596 22.1368 22.8572 22.4972 22.4968C22.8575 22.1364 23.06 21.6476 23.06 21.138V4.08318C23.0597 3.57369 22.8572 3.08516 22.4968 2.72498C22.1365 2.36481 21.6478 2.16248 21.1383 2.16248ZM21.6187 21.1389C21.6187 21.2662 21.5683 21.3882 21.4784 21.4783C21.3885 21.5684 21.2665 21.6191 21.1393 21.6194H1.92167C1.79425 21.6194 1.67206 21.5687 1.58196 21.4786C1.49187 21.3885 1.44125 21.2663 1.44125 21.1389V4.08414C1.4415 3.9569 1.49223 3.83495 1.5823 3.74506C1.67237 3.65517 1.79442 3.60469 1.92167 3.60469H5.04437V5.04594C5.04425 5.23706 5.12005 5.4204 5.2551 5.55564C5.39015 5.69087 5.5734 5.76692 5.76452 5.76704C5.95564 5.76717 6.13899 5.69137 6.27422 5.55632C6.40945 5.42126 6.4855 5.23802 6.48562 5.0469V3.60469H10.8094V5.04594C10.8092 5.23706 10.885 5.4204 11.0201 5.55564C11.1552 5.69087 11.3384 5.76692 11.5295 5.76704C11.7206 5.76717 11.904 5.69137 12.0392 5.55632C12.1745 5.42126 12.2505 5.23802 12.2506 5.0469V3.60469H16.5744V5.04594C16.5742 5.23706 16.65 5.4204 16.7851 5.55564C16.9202 5.69087 17.1034 5.76692 17.2945 5.76704C17.4856 5.76717 17.669 5.69137 17.8042 5.55632C17.9395 5.42126 18.0155 5.23802 18.0156 5.0469V3.60469H21.1383C21.2654 3.60494 21.3872 3.65554 21.4771 3.7454C21.5669 3.83526 21.6175 3.95706 21.6178 4.08414L21.6187 21.1389Z" fill="white"/>
<path d="M5.04443 8.64847H7.92707V10.8104H5.04443V8.64847ZM5.04443 12.2518H7.92707V14.4137H5.04443V12.2518ZM5.04443 15.8551H7.92707V18.017H5.04443V15.8551ZM10.0891 15.8551H12.9717V18.017H10.0891V15.8551ZM10.0891 12.2518H12.9717V14.4137H10.0891V12.2518ZM10.0891 8.64847H12.9717V10.8104H10.0891V8.64847ZM15.1337 15.8551H18.0163V18.017H15.1337V15.8551ZM15.1337 12.2518H18.0163V14.4137H15.1337V12.2518ZM15.1337 8.64847H18.0163V10.8104H15.1337V8.64847Z" fill="white"/>
</svg>
