<svg width="20" height="20" viewBox="0 0 20 20" fill="none" xmlns="http://www.w3.org/2000/svg">
<path d="M6.52236 1.72046H13.4772C16.1267 1.72046 18.2794 3.87315 18.2794 6.52261V13.4774C18.2794 14.7511 17.7734 15.9725 16.8728 16.8731C15.9723 17.7737 14.7508 18.2796 13.4772 18.2796H6.52236C3.8729 18.2796 1.72021 16.1269 1.72021 13.4774V6.52261C1.72021 5.249 2.22615 4.02755 3.12673 3.12698C4.02731 2.2264 5.24876 1.72046 6.52236 1.72046ZM6.35677 3.37637C5.56626 3.37637 4.80812 3.6904 4.24914 4.24938C3.69016 4.80836 3.37613 5.5665 3.37613 6.35702V13.643C3.37613 15.2907 4.70914 16.6237 6.35677 16.6237H13.6428C14.4333 16.6237 15.1914 16.3097 15.7504 15.7507C16.3094 15.1917 16.6234 14.4336 16.6234 13.643V6.35702C16.6234 4.70938 15.2904 3.37637 13.6428 3.37637H6.35677ZM14.3466 4.61831C14.621 4.61831 14.8843 4.72735 15.0784 4.92144C15.2725 5.11553 15.3815 5.37877 15.3815 5.65325C15.3815 5.92774 15.2725 6.19098 15.0784 6.38507C14.8843 6.57916 14.621 6.6882 14.3466 6.6882C14.0721 6.6882 13.8088 6.57916 13.6147 6.38507C13.4206 6.19098 13.3116 5.92774 13.3116 5.65325C13.3116 5.37877 13.4206 5.11553 13.6147 4.92144C13.8088 4.72735 14.0721 4.61831 14.3466 4.61831ZM9.99978 5.86024C11.0977 5.86024 12.1507 6.2964 12.9271 7.07276C13.7034 7.84912 14.1396 8.90209 14.1396 10C14.1396 11.098 13.7034 12.1509 12.9271 12.9273C12.1507 13.7037 11.0977 14.1398 9.99978 14.1398C8.90184 14.1398 7.84887 13.7037 7.07251 12.9273C6.29615 12.1509 5.86 11.098 5.86 10C5.86 8.90209 6.29615 7.84912 7.07251 7.07276C7.84887 6.2964 8.90184 5.86024 9.99978 5.86024ZM9.99978 7.51616C9.34102 7.51616 8.70924 7.77785 8.24342 8.24367C7.77761 8.70948 7.51591 9.34126 7.51591 10C7.51591 10.6588 7.77761 11.2906 8.24342 11.7564C8.70924 12.2222 9.34102 12.4839 9.99978 12.4839C10.6585 12.4839 11.2903 12.2222 11.7561 11.7564C12.222 11.2906 12.4837 10.6588 12.4837 10C12.4837 9.34126 12.222 8.70948 11.7561 8.24367C11.2903 7.77785 10.6585 7.51616 9.99978 7.51616Z" fill="#2E325A"/>
</svg>
