<svg width="20" height="20" viewBox="0 0 20 20" fill="none" xmlns="http://www.w3.org/2000/svg">
<g clip-path="url(#clip0_597_2732)">
<path d="M5.67891 10.7401V10.7534C5.67891 10.9736 5.58784 11.1715 5.44212 11.3139C5.37021 11.3889 5.28383 11.4486 5.1882 11.4893C5.09256 11.53 4.98967 11.5509 4.88573 11.5507H4.87662H4.87745H4.8758C4.66104 11.5507 4.45508 11.4654 4.30322 11.3135C4.15137 11.1617 4.06605 10.9557 4.06605 10.7409V10.731C4.06605 10.5124 4.15713 10.3154 4.30285 10.1746C4.37557 10.0995 4.46268 10.0397 4.55897 9.99886C4.65526 9.95804 4.75879 9.937 4.86338 9.937H4.87745H4.87662C5.08859 9.93915 5.29129 10.0243 5.44126 10.1741C5.59123 10.3239 5.67654 10.5265 5.67891 10.7385V10.7393V10.7401ZM15.6301 10.7294C15.6301 10.9443 15.5447 11.1505 15.3927 11.3025C15.2407 11.4545 15.0345 11.5399 14.8196 11.5399C14.6046 11.5399 14.3984 11.4545 14.2464 11.3025C14.0944 11.1505 14.009 10.9443 14.009 10.7294V10.7153C14.009 10.4975 14.1001 10.3005 14.2458 10.1605C14.3991 10.0105 14.6052 9.9265 14.8197 9.92665C15.0343 9.92681 15.2402 10.0111 15.3933 10.1614C15.4686 10.233 15.5285 10.3192 15.5693 10.4147C15.6102 10.5102 15.6311 10.6131 15.631 10.7169V10.731V10.7302L15.6301 10.7294ZM6.6617 10.7376C6.66659 10.5161 6.62717 10.2959 6.54577 10.0898C6.46437 9.88375 6.34262 9.69603 6.18767 9.53766C6.03272 9.3793 5.8477 9.25348 5.64346 9.16761C5.43922 9.08173 5.21988 9.03752 4.99832 9.03758C4.77676 9.03763 4.55745 9.08195 4.35325 9.16793C4.14906 9.25391 3.96409 9.37981 3.80923 9.53826C3.65436 9.6967 3.5327 9.88448 3.4514 10.0906C3.3701 10.2967 3.3308 10.517 3.3358 10.7385C3.34549 11.1731 3.52496 11.5866 3.83576 11.8906C4.14657 12.1945 4.56402 12.3647 4.99875 12.3647C5.43347 12.3647 5.85092 12.1945 6.16173 11.8906C6.47254 11.5866 6.652 11.1731 6.6617 10.7385V10.7376ZM16.6046 10.7294C16.6045 10.3446 16.4709 9.97177 16.2267 9.67442C15.9825 9.37707 15.6428 9.17357 15.2654 9.09858C14.888 9.0236 14.4963 9.08177 14.157 9.26318C13.8177 9.4446 13.5518 9.73804 13.4045 10.0935C13.2573 10.449 13.2378 10.8445 13.3495 11.2128C13.4611 11.581 13.697 11.8991 14.0169 12.1129C14.3368 12.3267 14.7209 12.4231 15.1038 12.3855C15.4867 12.3479 15.8448 12.1787 16.117 11.9067C16.4175 11.6144 16.6046 11.2063 16.6046 10.755V10.7285V10.7302V10.7294ZM7.39361 10.7376C7.39361 11.3747 7.14055 11.9856 6.69011 12.436C6.23967 12.8865 5.62873 13.1395 4.99171 13.1395C4.35469 13.1395 3.74375 12.8865 3.29331 12.436C2.84286 11.9856 2.58981 11.3747 2.58981 10.7376V10.7037C2.58981 10.0513 2.86138 9.46258 3.29688 9.04364L3.29771 9.04281C3.51399 8.82127 3.77246 8.6453 4.05786 8.52528C4.34326 8.40526 4.64981 8.34363 4.95942 8.34401H4.99916H4.99751H5.03145C5.34048 8.34357 5.64644 8.40536 5.93108 8.5257C6.21572 8.64604 6.47321 8.82247 6.68819 9.04446L6.68902 9.04529C7.12287 9.46589 7.39278 10.0537 7.39278 10.7053V10.7418V10.7401L7.39361 10.7376ZM17.3457 10.7294V10.7327C17.3456 11.2884 17.1528 11.8269 16.8002 12.2564C16.4476 12.6859 15.957 12.9799 15.4119 13.0882C14.8669 13.1965 14.3011 13.1125 13.8111 12.8504C13.321 12.5884 12.937 12.1645 12.7245 11.651C12.5119 11.1376 12.484 10.5663 12.6455 10.0345C12.8069 9.5028 13.1477 9.04349 13.6099 8.73488C14.072 8.42627 14.6269 8.28746 15.1799 8.3421C15.7329 8.39674 16.2499 8.64145 16.6427 9.03453C17.0766 9.45513 17.3457 10.043 17.3457 10.6938V10.731V10.7294ZM9.03214 10.755L9.03297 10.6971C9.03354 10.1827 8.93047 9.67339 8.72989 9.19969C8.52931 8.72599 8.23535 8.29756 7.86555 7.93997L7.86472 7.93914C7.50723 7.56886 7.07874 7.27448 6.60487 7.07361C6.131 6.87274 5.62148 6.7695 5.1068 6.77007L5.04553 6.77089H5.04884H5.02234C4.29788 6.77089 3.61979 6.9696 3.04022 7.31569L3.0576 7.30575C1.86286 8.00952 1.07299 9.29037 1.07299 10.755C1.07299 12.2197 1.86203 13.5005 3.03856 14.1944L3.05677 14.2043C3.6515 14.5564 4.33036 14.7412 5.02152 14.7392H5.05132H5.04967L5.10762 14.74C5.62204 14.7406 6.1313 14.6375 6.605 14.4369C7.0787 14.2363 7.50713 13.9424 7.86472 13.5726L7.86555 13.5717C8.23583 13.2142 8.53021 12.7858 8.73108 12.3119C8.93195 11.838 9.03519 11.3285 9.03462 10.8138L9.0338 10.7534V10.7567L9.03214 10.755ZM14.7947 5.81295C13.4203 5.20937 11.819 4.85749 10.135 4.85749L9.99257 4.85831H10C8.27603 4.82847 6.56508 5.16192 4.97846 5.83696L5.05877 5.80632H5.07285C5.76171 5.80632 6.41745 5.95122 7.01027 6.21119L6.97963 6.19878C7.59149 6.45958 8.11394 6.81643 8.55358 7.25525C8.99319 7.70131 9.34559 8.22556 9.59267 8.80104L9.60509 8.83333C9.85347 9.39552 9.99754 10.0513 9.99754 10.7401V10.755V10.7542C9.99754 9.41373 10.5283 8.19746 11.3902 7.30327L11.3885 7.30493C11.8206 6.86785 12.3287 6.51321 12.8879 6.25839L12.9194 6.24514C13.5046 5.97444 14.1394 5.82758 14.784 5.81378H14.7898L14.7947 5.81295ZM18.9262 10.7542C18.9251 9.83347 18.6048 8.94161 18.0198 8.23056C17.4349 7.51951 16.6215 7.03327 15.7183 6.85467C14.815 6.67606 13.8778 6.81615 13.0663 7.25106C12.2547 7.68598 11.6191 8.38881 11.2676 9.23982C10.9162 10.0908 10.8706 11.0374 11.1388 11.9182C11.4069 12.799 11.9722 13.5596 12.7382 14.0704C13.5043 14.5812 14.4237 14.8106 15.3399 14.7195C16.2562 14.6284 17.1125 14.2225 17.7629 13.5709C18.1318 13.2133 18.425 12.7851 18.625 12.3119C18.8249 11.8387 18.9277 11.33 18.9271 10.8163L18.9262 10.7509V10.7542ZM16.6328 5.87339H19.9355C19.6845 6.16557 19.4714 6.48826 19.3013 6.83382L19.2897 6.86031C19.132 7.16397 19.0172 7.48803 18.9486 7.82323L18.9444 7.84807C19.5625 8.69227 19.8944 9.71204 19.8916 10.7583C19.8916 11.7783 19.576 12.7733 18.9882 13.6069C18.4003 14.4404 17.569 15.0717 16.6082 15.4142C15.6475 15.7566 14.6043 15.7935 13.6217 15.5196C12.6392 15.2458 11.7654 14.6747 11.1202 13.8847L11.1136 13.8756C10.7526 14.3235 10.3858 14.8277 10.0447 15.3502L10 15.4222C9.85596 15.1694 9.6967 14.9255 9.52312 14.692L9.53636 14.711C9.29239 14.3633 9.07823 14.0831 8.89387 13.8706C8.07999 14.868 6.90909 15.5086 5.63022 15.656C4.35135 15.8034 3.06541 15.4461 2.04593 14.66C1.02645 13.874 0.353871 12.7212 0.171243 11.4469C-0.0113844 10.1725 0.310353 8.87724 1.06802 7.83647L1.05809 7.85138C0.988018 7.50011 0.868426 7.16057 0.702893 6.84293L0.712828 6.86363C0.539106 6.5055 0.319509 6.17151 0.0595703 5.87008L0.0645381 5.87587H3.21243C4.13083 5.27397 5.14001 4.82361 6.20135 4.54203L6.27421 4.52547C7.4679 4.19868 8.70032 4.03491 9.93792 4.03864H10.0033H10H10.0886C11.3496 4.03864 12.5683 4.21499 13.7233 4.54452L13.6298 4.52216C14.7707 4.83927 15.7692 5.3021 16.67 5.90071L16.6311 5.8767L16.6328 5.87339Z" fill="#2E325A"/>
</g>
<defs>
<clipPath id="clip0_597_2732">
<rect width="19.871" height="19.871" fill="white" transform="translate(0.0644531 0.0644531)"/>
</clipPath>
</defs>
</svg>
