<svg width="474" height="107" viewBox="0 0 474 107" fill="none" xmlns="http://www.w3.org/2000/svg">
<path d="M34.2 19.8H0.6V-7.15256e-06H92.1V19.8H58.5V105H34.2V19.8ZM141.444 106.65C132.244 106.65 123.944 104.75 116.544 100.95C109.244 97.05 103.494 91.7 99.2941 84.9C95.0941 78.1 92.9941 70.45 92.9941 61.95C92.9941 53.45 95.0941 45.8 99.2941 39C103.494 32.1 109.244 26.75 116.544 22.95C123.944 19.05 132.244 17.1 141.444 17.1C150.644 17.1 158.894 19.05 166.194 22.95C173.594 26.75 179.394 32.1 183.594 39C187.794 45.8 189.894 53.45 189.894 61.95C189.894 70.45 187.794 78.1 183.594 84.9C179.394 91.7 173.594 97.05 166.194 100.95C158.894 104.75 150.644 106.65 141.444 106.65ZM141.444 87.3C146.044 87.3 150.194 86.2 153.894 84C157.694 81.8 160.644 78.8 162.744 75C164.844 71.1 165.894 66.75 165.894 61.95C165.894 57.05 164.844 52.7 162.744 48.9C160.644 45 157.694 41.95 153.894 39.75C150.194 37.55 146.044 36.45 141.444 36.45C136.844 36.45 132.644 37.55 128.844 39.75C125.144 41.95 122.194 45 119.994 48.9C117.894 52.7 116.844 57.05 116.844 61.95C116.844 66.75 117.894 71.1 119.994 75C122.194 78.8 125.144 81.8 128.844 84C132.644 86.2 136.844 87.3 141.444 87.3ZM246.567 106.65C233.767 106.65 223.767 103.2 216.567 96.3C209.367 89.4 205.767 79.9 205.767 67.8V18.75H229.467V67.05C229.467 73.75 230.917 78.8 233.817 82.2C236.817 85.6 241.167 87.3 246.867 87.3C252.467 87.3 256.717 85.6 259.617 82.2C262.517 78.8 263.967 73.75 263.967 67.05V18.75H287.367V67.8C287.367 79.9 283.767 89.4 276.567 96.3C269.367 103.2 259.367 106.65 246.567 106.65ZM347.749 81.9H333.199V105H309.499V18.75H348.799C360.699 18.75 370.149 21.6 377.149 27.3C384.149 32.9 387.649 40.65 387.649 50.55C387.649 56.85 386.099 62.35 382.999 67.05C379.999 71.65 375.699 75.25 370.099 77.85L389.299 105H363.799L347.749 81.9ZM363.799 50.55C363.799 46.25 362.399 42.95 359.599 40.65C356.799 38.35 352.649 37.2 347.149 37.2H333.199V63.9H347.149C352.649 63.9 356.799 62.75 359.599 60.45C362.399 58.15 363.799 54.85 363.799 50.55ZM434.682 106.65C427.682 106.65 420.832 105.8 414.132 104.1C407.532 102.4 402.232 100.15 398.232 97.35L406.482 79.8C410.382 82.4 414.932 84.45 420.132 85.95C425.332 87.45 430.632 88.2 436.032 88.2C441.032 88.2 444.632 87.55 446.832 86.25C449.132 84.85 450.282 83 450.282 80.7C450.282 78.1 448.882 76.2 446.082 75C443.282 73.7 438.832 72.45 432.732 71.25C426.032 69.85 420.532 68.4 416.232 66.9C411.932 65.3 408.182 62.75 404.982 59.25C401.882 55.75 400.332 50.95 400.332 44.85C400.332 39.45 401.882 34.65 404.982 30.45C408.082 26.25 412.532 23 418.332 20.7C424.232 18.3 431.132 17.1 439.032 17.1C444.832 17.1 450.482 17.75 455.982 19.05C461.482 20.25 466.232 22.1 470.232 24.6L462.582 42.15C455.382 37.75 447.232 35.55 438.132 35.55C433.232 35.55 429.582 36.3 427.182 37.8C424.882 39.2 423.732 41.1 423.732 43.5C423.732 46.1 425.132 48 427.932 49.2C430.732 50.4 435.182 51.6 441.282 52.8C447.882 54.2 453.332 55.7 457.632 57.3C462.032 58.8 465.782 61.3 468.882 64.8C472.082 68.2 473.682 72.85 473.682 78.75C473.682 84.25 472.132 89.1 469.032 93.3C466.032 97.5 461.582 100.8 455.682 103.2C449.782 105.5 442.782 106.65 434.682 106.65Z" fill="white" fill-opacity="0.8"/>
</svg>
