<svg width="20" height="20" viewBox="0 0 20 20" fill="none" xmlns="http://www.w3.org/2000/svg">
<path d="M10.033 1.72026C5.51236 1.72026 1.82796 5.40467 1.82796 9.92532C1.82796 11.3742 2.20882 12.7818 2.92086 14.0237L1.76172 18.2794L6.10849 17.1368C7.30903 17.7909 8.6586 18.1387 10.033 18.1387C14.5537 18.1387 18.2381 14.4542 18.2381 9.9336C18.2381 7.73951 17.3853 5.6779 15.837 4.12962C15.0779 3.36287 14.1738 2.75494 13.1773 2.34127C12.1808 1.92761 11.1119 1.71651 10.033 1.72026ZM10.0413 3.10295C11.8628 3.10295 13.5684 3.815 14.86 5.10661C15.4939 5.74029 15.9965 6.49287 16.3389 7.3212C16.6813 8.14952 16.8568 9.03729 16.8554 9.9336C16.8554 13.6925 13.7919 16.7477 10.033 16.7477C8.80763 16.7477 7.6071 16.4248 6.56387 15.7955L6.31548 15.6548L3.73226 16.3337L4.41946 13.8167L4.25387 13.5518C3.56993 12.466 3.20817 11.2085 3.21064 9.92532C3.21892 6.16639 6.27408 3.10295 10.0413 3.10295ZM7.12688 6.13328C6.99441 6.13328 6.77086 6.18295 6.58043 6.38994C6.39828 6.59693 5.86011 7.10199 5.86011 8.10381C5.86011 9.11392 6.59699 10.0826 6.68806 10.2234C6.80398 10.3641 8.14527 12.434 10.2069 13.3117C10.6954 13.5352 11.0762 13.6594 11.3743 13.7505C11.8628 13.9078 12.3099 13.883 12.6659 13.8333C13.0633 13.7753 13.8747 13.3365 14.0486 12.8563C14.2225 12.3761 14.2225 11.9704 14.1728 11.8793C14.1148 11.7965 13.9824 11.7468 13.7754 11.6558C13.5684 11.5398 12.5583 11.0431 12.3761 10.9768C12.1857 10.9106 12.0698 10.8775 11.9125 11.0762C11.78 11.2832 11.3826 11.7468 11.2667 11.8793C11.1425 12.0201 11.0266 12.0366 10.8278 11.9373C10.6126 11.8296 9.95021 11.6144 9.17193 10.9189C8.55925 10.3724 8.15355 9.70177 8.02935 9.49478C7.93 9.29607 8.02107 9.17188 8.12043 9.0808C8.2115 8.98973 8.34398 8.8407 8.42677 8.7165C8.53441 8.60059 8.56753 8.50951 8.63376 8.37704C8.7 8.23629 8.66688 8.12037 8.6172 8.02102C8.56752 7.92994 8.15355 6.90328 7.97968 6.49758C7.81408 6.10016 7.64849 6.14984 7.51602 6.14156C7.40011 6.14156 7.26763 6.13328 7.12688 6.13328Z" fill="#2E325A"/>
</svg>
