<svg width="73" height="54" viewBox="0 0 73 54" fill="none" xmlns="http://www.w3.org/2000/svg">
<g filter="url(#filter0_d_1428_3190)">
<path d="M11.3125 7.6875C11.3125 6.17908 11.9117 4.73244 12.9783 3.66583C14.0449 2.59922 15.4916 2 17 2C18.5084 2 19.9551 2.59922 21.0217 3.66583C22.0883 4.73244 22.6875 6.17908 22.6875 7.6875C22.6875 9.19592 22.0883 10.6426 21.0217 11.7092C19.9551 12.7758 18.5084 13.375 17 13.375C15.4916 13.375 14.0449 12.7758 12.9783 11.7092C11.9117 10.6426 11.3125 9.19592 11.3125 7.6875ZM10.5 23.7039C9.48438 24.8414 8.875 26.3547 8.875 28C8.875 29.6453 9.48438 31.1586 10.5 32.2961V23.7039ZM25.1656 18.6969C22.1492 21.368 20.25 25.2781 20.25 29.625C20.25 33.1086 21.4688 36.3078 23.5 38.8164V41C23.5 42.7977 22.0477 44.25 20.25 44.25H13.75C11.9523 44.25 10.5 42.7977 10.5 41V38.2781C6.66094 36.45 4 32.5398 4 28C4 21.7133 9.08828 16.625 15.375 16.625H18.625C21.0625 16.625 23.3172 17.3867 25.1656 18.6867V18.6969ZM49.5 41V38.8164C51.5312 36.3078 52.75 33.1086 52.75 29.625C52.75 25.2781 50.8508 21.368 47.8344 18.6867C49.6828 17.3867 51.9375 16.625 54.375 16.625H57.625C63.9117 16.625 69 21.7133 69 28C69 32.5398 66.3391 36.45 62.5 38.2781V41C62.5 42.7977 61.0477 44.25 59.25 44.25H52.75C50.9523 44.25 49.5 42.7977 49.5 41ZM50.3125 7.6875C50.3125 6.17908 50.9117 4.73244 51.9783 3.66583C53.0449 2.59922 54.4916 2 56 2C57.5084 2 58.9551 2.59922 60.0217 3.66583C61.0883 4.73244 61.6875 6.17908 61.6875 7.6875C61.6875 9.19592 61.0883 10.6426 60.0217 11.7092C58.9551 12.7758 57.5084 13.375 56 13.375C54.4916 13.375 53.0449 12.7758 51.9783 11.7092C50.9117 10.6426 50.3125 9.19592 50.3125 7.6875ZM62.5 23.7039V32.3062C63.5156 31.1586 64.125 29.6555 64.125 28.0102C64.125 26.3648 63.5156 24.8516 62.5 23.7141V23.7039ZM36.5 2C38.2239 2 39.8772 2.68482 41.0962 3.90381C42.3152 5.12279 43 6.77609 43 8.5C43 10.2239 42.3152 11.8772 41.0962 13.0962C39.8772 14.3152 38.2239 15 36.5 15C34.7761 15 33.1228 14.3152 31.9038 13.0962C30.6848 11.8772 30 10.2239 30 8.5C30 6.77609 30.6848 5.12279 31.9038 3.90381C33.1228 2.68482 34.7761 2 36.5 2ZM28.375 29.625C28.375 31.2703 28.9844 32.7734 30 33.9211V25.3289C28.9844 26.4766 28.375 27.9797 28.375 29.625ZM43 25.3289V33.9312C44.0156 32.7836 44.625 31.2805 44.625 29.6352C44.625 27.9898 44.0156 26.4766 43 25.3391V25.3289ZM49.5 29.625C49.5 34.1648 46.8391 38.075 43 39.9031V44.25C43 46.0477 41.5477 47.5 39.75 47.5H33.25C31.4523 47.5 30 46.0477 30 44.25V39.9031C26.1609 38.075 23.5 34.1648 23.5 29.625C23.5 23.3383 28.5883 18.25 34.875 18.25H38.125C44.4117 18.25 49.5 23.3383 49.5 29.625Z" fill="#36D28F"/>
<path d="M11 23.7039V22.3932L10.127 23.3709C9.0309 24.5986 8.375 26.2299 8.375 28C8.375 29.7701 9.0309 31.4014 10.127 32.6291L11 33.6068V32.2961V23.7039ZM11 38.2781V37.9624L10.715 37.8267C7.04275 36.078 4.5 32.3391 4.5 28C4.5 21.9894 9.36442 17.125 15.375 17.125H18.625C20.7354 17.125 22.7009 17.7216 24.3649 18.7561C21.519 21.4996 19.75 25.3594 19.75 29.625C19.75 33.1631 20.9662 36.4187 23 38.9918V41C23 42.5215 21.7715 43.75 20.25 43.75H13.75C12.2285 43.75 11 42.5215 11 41V38.2781ZM53.25 29.625C53.25 25.3616 51.483 21.5042 48.6406 18.7528C50.3034 17.7203 52.2669 17.125 54.375 17.125H57.625C63.6356 17.125 68.5 21.9894 68.5 28C68.5 32.3391 65.9572 36.078 62.285 37.8267L62 37.9624V38.2781V41C62 42.5215 60.7715 43.75 59.25 43.75H52.75C51.2285 43.75 50 42.5215 50 41V38.9918C52.0338 36.4187 53.25 33.1631 53.25 29.625ZM62 32.3062V33.6257L62.8744 32.6376C63.9683 31.4015 64.625 29.7815 64.625 28.0102C64.625 26.2401 63.9691 24.6087 62.873 23.3811L62.5114 23.7039H62.5H62V23.7141V23.9048V32.3062ZM29.6256 34.2525L30.5 35.2406V33.9211V25.3289V24.0094L29.6256 24.9975C28.5317 26.2336 27.875 27.8537 27.875 29.625C27.875 31.3963 28.5317 33.0164 29.6256 34.2525ZM42.5 33.9312V35.2507L43.3744 34.2626C44.4683 33.0265 45.125 31.4065 45.125 29.6352C45.125 27.8651 44.4691 26.2337 43.373 25.0061L43.0114 25.3289H43H42.5V25.3391V25.5298V33.9312ZM42.785 39.4517L42.5 39.5874V39.9031V44.25C42.5 45.7715 41.2715 47 39.75 47H33.25C31.7285 47 30.5 45.7715 30.5 44.25V39.9031V39.5874L30.215 39.4517C26.5428 37.703 24 33.9641 24 29.625C24 23.6144 28.8644 18.75 34.875 18.75H38.125C44.1356 18.75 49 23.6144 49 29.625C49 33.9641 46.4572 37.703 42.785 39.4517ZM11.8125 7.6875C11.8125 6.31169 12.359 4.99223 13.3319 4.01938C14.3047 3.04654 15.6242 2.5 17 2.5C18.3758 2.5 19.6953 3.04654 20.6681 4.01938C21.641 4.99223 22.1875 6.31169 22.1875 7.6875C22.1875 9.06331 21.641 10.3828 20.6681 11.3556C19.6953 12.3285 18.3758 12.875 17 12.875C15.6242 12.875 14.3047 12.3285 13.3319 11.3556C12.359 10.3828 11.8125 9.06331 11.8125 7.6875ZM50.8125 7.6875C50.8125 6.31169 51.359 4.99223 52.3319 4.01938C53.3047 3.04654 54.6242 2.5 56 2.5C57.3758 2.5 58.6953 3.04654 59.6681 4.01938C60.641 4.99223 61.1875 6.31169 61.1875 7.6875C61.1875 9.06331 60.641 10.3828 59.6681 11.3556C58.6953 12.3285 57.3758 12.875 56 12.875C54.6242 12.875 53.3047 12.3285 52.3319 11.3556C51.359 10.3828 50.8125 9.06331 50.8125 7.6875ZM36.5 2.5C38.0913 2.5 39.6174 3.13214 40.7426 4.25736C41.8679 5.38258 42.5 6.9087 42.5 8.5C42.5 10.0913 41.8679 11.6174 40.7426 12.7426C39.6174 13.8679 38.0913 14.5 36.5 14.5C34.9087 14.5 33.3826 13.8679 32.2574 12.7426C31.1321 11.6174 30.5 10.0913 30.5 8.5C30.5 6.9087 31.1321 5.38258 32.2574 4.25736C33.3826 3.13214 34.9087 2.5 36.5 2.5Z" stroke="#333333"/>
</g>
<defs>
<filter id="filter0_d_1428_3190" x="0" y="0" width="73" height="53.5" filterUnits="userSpaceOnUse" color-interpolation-filters="sRGB">
<feFlood flood-opacity="0" result="BackgroundImageFix"/>
<feColorMatrix in="SourceAlpha" type="matrix" values="0 0 0 0 0 0 0 0 0 0 0 0 0 0 0 0 0 0 127 0" result="hardAlpha"/>
<feOffset dy="2"/>
<feGaussianBlur stdDeviation="2"/>
<feComposite in2="hardAlpha" operator="out"/>
<feColorMatrix type="matrix" values="0 0 0 0 0 0 0 0 0 0 0 0 0 0 0 0 0 0 0.25 0"/>
<feBlend mode="normal" in2="BackgroundImageFix" result="effect1_dropShadow_1428_3190"/>
<feBlend mode="normal" in="SourceGraphic" in2="effect1_dropShadow_1428_3190" result="shape"/>
</filter>
</defs>
</svg>
