<svg width="73" height="62" viewBox="0 0 73 62" fill="none" xmlns="http://www.w3.org/2000/svg">
<g filter="url(#filter0_d_1428_3185)">
<path d="M20.6611 2C22.4293 2 24.1252 2.70259 25.3755 3.9532C26.6259 5.20381 27.3283 6.9 27.3283 8.66863C27.3283 10.4373 26.6259 12.1335 25.3755 13.3841C24.1252 14.6347 22.4293 15.3373 20.6611 15.3373C18.8928 15.3373 17.197 14.6347 15.9466 13.3841C14.6963 12.1335 13.9938 10.4373 13.9938 8.66863C13.9938 6.9 14.6963 5.20381 15.9466 3.9532C17.197 2.70259 18.8928 2 20.6611 2ZM13.1604 52.0147V43.679H11.3061C10.1706 43.679 9.3684 42.564 9.7226 41.4804L12.9625 31.7484L9.98304 35.687C8.86835 37.1562 6.77442 37.4375 5.31595 36.333C3.85749 35.2285 3.5658 33.1342 4.67006 31.665L10.806 23.5689C13.1396 20.4846 16.7961 18.6716 20.6611 18.6716C24.526 18.6716 28.1826 20.4846 30.5161 23.5689L36.6521 31.665C37.7668 33.1342 37.4751 35.2285 36.0062 36.333C34.5373 37.4375 32.4434 37.1562 31.3391 35.687L28.3597 31.7484L31.5995 41.4804C31.9642 42.564 31.1516 43.679 30.0161 43.679H28.1617V52.0147C28.1617 53.859 26.672 55.3491 24.8281 55.3491C22.9842 55.3491 21.4945 53.859 21.4945 52.0147V43.679H19.8277V52.0147C19.8277 53.859 18.3379 55.3491 16.494 55.3491C14.6501 55.3491 13.1604 53.859 13.1604 52.0147ZM53.9974 2C55.7656 2 57.4615 2.70259 58.7118 3.9532C59.9622 5.20381 60.6646 6.9 60.6646 8.66863C60.6646 10.4373 59.9622 12.1335 58.7118 13.3841C57.4615 14.6347 55.7656 15.3373 53.9974 15.3373C52.2291 15.3373 50.5333 14.6347 49.2829 13.3841C48.0326 12.1335 47.3301 10.4373 47.3301 8.66863C47.3301 6.9 48.0326 5.20381 49.2829 3.9532C50.5333 2.70259 52.2291 2 53.9974 2ZM53.164 42.0118V52.0147C53.164 53.859 51.6743 55.3491 49.8303 55.3491C47.9864 55.3491 46.4967 53.859 46.4967 52.0147V33.3113L45.1528 35.4474C44.1736 37.0103 42.1109 37.4688 40.5587 36.4893C39.0065 35.5099 38.5377 33.4468 39.5169 31.8942L44.9028 23.3396C46.7363 20.4325 49.9345 18.6612 53.3619 18.6612H54.6433C58.0811 18.6612 61.2793 20.4221 63.1024 23.3396L68.4882 31.9046C69.4675 33.4676 68.9987 35.5203 67.4465 36.4998C65.8943 37.4792 63.8316 37.0103 62.8523 35.4578L61.498 33.3113V52.0147C61.498 53.859 60.0083 55.3491 58.1644 55.3491C56.3205 55.3491 54.8308 53.859 54.8308 52.0147V42.0118H53.164Z" fill="#D25236"/>
<path d="M13.6604 43.179V43.679V52.0147C13.6604 53.583 14.9264 54.8491 16.494 54.8491C18.0617 54.8491 19.3277 53.583 19.3277 52.0147V43.679V43.179H19.8277H21.4945H21.9945V43.679V52.0147C21.9945 53.583 23.2604 54.8491 24.8281 54.8491C26.3958 54.8491 27.6617 53.583 27.6617 52.0147V43.679V43.179H28.1617H30.0161C30.8131 43.179 31.3802 42.3963 31.1257 41.6398L31.1251 41.6383L27.8853 31.9063L28.7584 31.4467L31.7379 35.3854L31.7388 35.3866C32.6746 36.6317 34.4542 36.8744 35.7057 35.9334C36.9526 34.9958 37.2014 33.2163 36.2537 31.9672L36.2536 31.967L30.1176 23.8709L30.1174 23.8705C27.8786 20.9116 24.3698 19.1716 20.6611 19.1716C16.9523 19.1716 13.4435 20.9116 11.2048 23.8705L11.2045 23.8709L5.06975 31.9654C5.06955 31.9657 5.06935 31.9659 5.06914 31.9662C4.13036 33.2162 4.38016 34.9972 5.61781 35.9344C6.85645 36.8725 8.63656 36.6338 9.58428 35.3854L13.6604 43.179ZM13.6604 43.179H13.1604H11.3061C10.5149 43.179 9.94864 42.4006 10.1975 41.6368M13.6604 43.179L10.1975 41.6368M10.1975 41.6368C10.1976 41.6365 10.1977 41.6361 10.1979 41.6357L13.4369 31.9063L12.5637 31.4467L9.58471 35.3848L10.1975 41.6368ZM53.164 41.5118H52.664V42.0118V52.0147C52.664 53.583 51.398 54.8491 49.8303 54.8491C48.2627 54.8491 46.9967 53.583 46.9967 52.0147V33.3113V31.5776L46.0735 33.0451L44.7296 35.1811L44.7291 35.1819C43.898 36.5084 42.1456 36.8994 40.8255 36.0665C39.5064 35.2341 39.1081 33.4796 39.9398 32.161L39.94 32.1606L45.3257 23.6064C47.0682 20.8436 50.1072 19.1612 53.3619 19.1612H54.6433C57.9098 19.1612 60.9472 20.8342 62.6783 23.6046L62.6791 23.6058L68.0645 32.1701C68.0647 32.1703 68.0648 32.1706 68.065 32.1708C68.8977 33.5007 68.4981 35.2449 67.1797 36.0769C65.8615 36.9087 64.1074 36.5105 63.2752 35.191L63.2752 35.191L61.9209 33.0445L60.998 31.5818V33.3113V52.0147C60.998 53.583 59.7321 54.8491 58.1644 54.8491C56.5967 54.8491 55.3308 53.583 55.3308 52.0147V42.0118V41.5118H54.8308H53.164ZM58.3582 4.30671L58.707 3.95804L58.3582 4.30671C59.5148 5.46355 60.1646 7.03258 60.1646 8.66863C60.1646 10.3047 59.5148 11.8737 58.3582 13.0306C57.2017 14.1874 55.633 14.8373 53.9974 14.8373C52.3617 14.8373 50.7931 14.1874 49.6365 13.0306C48.4799 11.8737 47.8301 10.3047 47.8301 8.66863C47.8301 7.03258 48.4799 5.46355 49.6365 4.30671C50.7931 3.14988 52.3617 2.5 53.9974 2.5C55.633 2.5 57.2017 3.14988 58.3582 4.30671ZM20.6611 2.5C22.2967 2.5 23.8654 3.14988 25.0219 4.30671C26.1785 5.46355 26.8283 7.03258 26.8283 8.66863C26.8283 10.3047 26.1785 11.8737 25.0219 13.0306C23.8654 14.1874 22.2967 14.8373 20.6611 14.8373C19.0254 14.8373 17.4568 14.1874 16.3002 13.0306C15.1436 11.8737 14.4938 10.3047 14.4938 8.66863C14.4938 7.03258 15.1436 5.46355 16.3002 4.30671C17.4568 3.14988 19.0254 2.5 20.6611 2.5Z" stroke="#333333"/>
</g>
<defs>
<filter id="filter0_d_1428_3185" x="0" y="0" width="73" height="61.3491" filterUnits="userSpaceOnUse" color-interpolation-filters="sRGB">
<feFlood flood-opacity="0" result="BackgroundImageFix"/>
<feColorMatrix in="SourceAlpha" type="matrix" values="0 0 0 0 0 0 0 0 0 0 0 0 0 0 0 0 0 0 127 0" result="hardAlpha"/>
<feOffset dy="2"/>
<feGaussianBlur stdDeviation="2"/>
<feComposite in2="hardAlpha" operator="out"/>
<feColorMatrix type="matrix" values="0 0 0 0 0 0 0 0 0 0 0 0 0 0 0 0 0 0 0.25 0"/>
<feBlend mode="normal" in2="BackgroundImageFix" result="effect1_dropShadow_1428_3185"/>
<feBlend mode="normal" in="SourceGraphic" in2="effect1_dropShadow_1428_3185" result="shape"/>
</filter>
</defs>
</svg>
