<svg width="21" height="25" viewBox="0 0 21 25" fill="none" xmlns="http://www.w3.org/2000/svg">
<path d="M18.6902 11.1251C19.4513 11.5781 19.8318 11.8046 19.9606 12.0981C20.073 12.3543 20.073 12.6457 19.9606 12.9019C19.8318 13.1954 19.4513 13.4219 18.6902 13.8749L2.41837 23.5605C1.62638 24.0319 1.23039 24.2676 0.904746 24.2365C0.620778 24.2093 0.361934 24.0621 0.193339 23.832C2.7845e-06 23.5681 2.80464e-06 23.1073 2.84493e-06 22.1856L3.69168e-06 2.81438C3.73196e-06 1.8927 3.75211e-06 1.43186 0.19334 1.16797C0.361935 0.937861 0.620779 0.790706 0.904747 0.763532C1.23039 0.732371 1.62638 0.968083 2.41838 1.43951L18.6902 11.1251Z" fill="white"/>
</svg>
