<svg width="18" height="18" viewBox="0 0 18 18" fill="none" xmlns="http://www.w3.org/2000/svg">
<path d="M5.52255 0.720337H12.4774C15.1268 0.720337 17.2795 2.87302 17.2795 5.52249V12.4773C17.2795 13.7509 16.7736 14.9724 15.873 15.873C14.9724 16.7735 13.751 17.2795 12.4774 17.2795H5.52255C2.87309 17.2795 0.720398 15.1268 0.720398 12.4773V5.52249C0.720398 4.24888 1.22634 3.02743 2.12692 2.12685C3.02749 1.22628 4.24894 0.720337 5.52255 0.720337ZM5.35696 2.37625C4.56644 2.37625 3.8083 2.69028 3.24932 3.24926C2.69034 3.80824 2.37631 4.56638 2.37631 5.3569V12.6429C2.37631 14.2905 3.70932 15.6236 5.35696 15.6236H12.643C13.4335 15.6236 14.1916 15.3095 14.7506 14.7506C15.3096 14.1916 15.6236 13.4334 15.6236 12.6429V5.3569C15.6236 3.70926 14.2906 2.37625 12.643 2.37625H5.35696ZM13.3467 3.61819C13.6212 3.61819 13.8845 3.72722 14.0786 3.92131C14.2726 4.1154 14.3817 4.37865 14.3817 4.65313C14.3817 4.92762 14.2726 5.19086 14.0786 5.38495C13.8845 5.57904 13.6212 5.68808 13.3467 5.68808C13.0723 5.68808 12.809 5.57904 12.6149 5.38495C12.4208 5.19086 12.3118 4.92762 12.3118 4.65313C12.3118 4.37865 12.4208 4.1154 12.6149 3.92131C12.809 3.72722 13.0723 3.61819 13.3467 3.61819ZM8.99997 4.86012C10.0979 4.86012 11.1509 5.29628 11.9272 6.07264C12.7036 6.849 13.1398 7.90197 13.1398 8.99991C13.1398 10.0978 12.7036 11.1508 11.9272 11.9272C11.1509 12.7035 10.0979 13.1397 8.99997 13.1397C7.90203 13.1397 6.84906 12.7035 6.0727 11.9272C5.29634 11.1508 4.86018 10.0978 4.86018 8.99991C4.86018 7.90197 5.29634 6.849 6.0727 6.07264C6.84906 5.29628 7.90203 4.86012 8.99997 4.86012ZM8.99997 6.51604C8.3412 6.51604 7.70942 6.77773 7.2436 7.24354C6.77779 7.70936 6.5161 8.34114 6.5161 8.99991C6.5161 9.65867 6.77779 10.2905 7.2436 10.7563C7.70942 11.2221 8.3412 11.4838 8.99997 11.4838C9.65873 11.4838 10.2905 11.2221 10.7563 10.7563C11.2221 10.2905 11.4838 9.65867 11.4838 8.99991C11.4838 8.34114 11.2221 7.70936 10.7563 7.24354C10.2905 6.77773 9.65873 6.51604 8.99997 6.51604Z" fill="#2E325A"/>
</svg>
