<svg width="20" height="12" viewBox="0 0 20 12" fill="none" xmlns="http://www.w3.org/2000/svg">
<path d="M5.67891 6.74012V6.75337C5.67891 6.9736 5.58784 7.17148 5.44212 7.31389C5.37021 7.38894 5.28383 7.44863 5.1882 7.48933C5.09256 7.53003 4.98967 7.5509 4.88573 7.55069H4.87662H4.87745H4.8758C4.66104 7.55069 4.45508 7.46538 4.30322 7.31352C4.15137 7.16167 4.06605 6.95571 4.06605 6.74095V6.73101C4.06605 6.51243 4.15713 6.31538 4.30285 6.17462C4.37557 6.09946 4.46268 6.03968 4.55897 5.99886C4.65526 5.95804 4.75879 5.937 4.86338 5.937H4.87745H4.87662C5.08859 5.93915 5.29129 6.02426 5.44126 6.17407C5.59123 6.32389 5.67654 6.5265 5.67891 6.73846V6.73929V6.74012ZM15.6301 6.72936C15.6301 6.94433 15.5447 7.1505 15.3927 7.30252C15.2407 7.45453 15.0345 7.53993 14.8196 7.53993C14.6046 7.53993 14.3984 7.45453 14.2464 7.30252C14.0944 7.1505 14.009 6.94433 14.009 6.72936V6.71528C14.009 6.49753 14.1001 6.30047 14.2458 6.16055C14.3991 6.01047 14.6052 5.9265 14.8197 5.92665C15.0343 5.92681 15.2402 6.01108 15.3933 6.16138C15.4686 6.23299 15.5285 6.31919 15.5693 6.4147C15.6102 6.51022 15.6311 6.61305 15.631 6.71694V6.73101V6.73018L15.6301 6.72936ZM6.6617 6.73764C6.66659 6.51613 6.62717 6.29588 6.54577 6.08982C6.46437 5.88375 6.34262 5.69603 6.18767 5.53766C6.03272 5.3793 5.8477 5.25348 5.64346 5.16761C5.43922 5.08173 5.21988 5.03752 4.99832 5.03758C4.77676 5.03763 4.55745 5.08195 4.35325 5.16793C4.14906 5.25391 3.96409 5.37981 3.80923 5.53826C3.65436 5.6967 3.5327 5.88448 3.4514 6.09059C3.3701 6.29669 3.3308 6.51696 3.3358 6.73846C3.34549 7.17308 3.52496 7.58663 3.83576 7.89058C4.14657 8.19453 4.56402 8.36472 4.99875 8.36472C5.43347 8.36472 5.85092 8.19453 6.16173 7.89058C6.47254 7.58663 6.652 7.17308 6.6617 6.73846V6.73764ZM16.6046 6.72936C16.6045 6.34459 16.4709 5.97177 16.2267 5.67442C15.9825 5.37707 15.6428 5.17357 15.2654 5.09858C14.888 5.0236 14.4963 5.08177 14.157 5.26318C13.8177 5.4446 13.5518 5.73804 13.4045 6.09352C13.2573 6.44901 13.2378 6.84454 13.3495 7.21275C13.4611 7.58096 13.697 7.89908 14.0169 8.11291C14.3368 8.32674 14.7209 8.42306 15.1038 8.38546C15.4867 8.34786 15.8448 8.17867 16.117 7.90671C16.4175 7.61444 16.6046 7.20626 16.6046 6.75502V6.72853V6.73018V6.72936ZM7.39361 6.73764C7.39361 7.37466 7.14055 7.98559 6.69011 8.43604C6.23967 8.88648 5.62873 9.13954 4.99171 9.13954C4.35469 9.13954 3.74375 8.88648 3.29331 8.43604C2.84286 7.98559 2.58981 7.37466 2.58981 6.73764V6.70369C2.58981 6.05126 2.86138 5.46258 3.29688 5.04364L3.29771 5.04281C3.51399 4.82127 3.77246 4.6453 4.05786 4.52528C4.34326 4.40526 4.64981 4.34363 4.95942 4.34401H4.99916H4.99751H5.03145C5.34048 4.34357 5.64644 4.40536 5.93108 4.5257C6.21572 4.64604 6.47321 4.82247 6.68819 5.04446L6.68902 5.04529C7.12287 5.46589 7.39278 6.05374 7.39278 6.70535V6.74178V6.74012L7.39361 6.73764ZM17.3457 6.72936V6.73267C17.3456 7.28838 17.1528 7.82688 16.8002 8.2564C16.4476 8.68592 15.957 8.97988 15.4119 9.0882C14.8669 9.19652 14.3011 9.11248 13.8111 8.85042C13.321 8.58836 12.937 8.16448 12.7245 7.65102C12.5119 7.13756 12.484 6.56629 12.6455 6.03454C12.8069 5.5028 13.1477 5.04349 13.6099 4.73488C14.072 4.42627 14.6269 4.28746 15.1799 4.3421C15.7329 4.39674 16.2499 4.64145 16.6427 5.03453C17.0766 5.45513 17.3457 6.04298 17.3457 6.69375V6.73101V6.72936ZM9.03214 6.75502L9.03297 6.69707C9.03354 6.18265 8.93047 5.67339 8.72989 5.19969C8.52931 4.72599 8.23535 4.29756 7.86555 3.93997L7.86472 3.93914C7.50723 3.56886 7.07874 3.27448 6.60487 3.07361C6.131 2.87274 5.62148 2.7695 5.1068 2.77007L5.04553 2.77089H5.04884H5.02234C4.29788 2.77089 3.61979 2.9696 3.04022 3.31569L3.0576 3.30575C1.86286 4.00952 1.07299 5.29037 1.07299 6.75502C1.07299 8.21968 1.86203 9.50053 3.03856 10.1944L3.05677 10.2043C3.6515 10.5564 4.33036 10.7412 5.02152 10.7392H5.05132H5.04967L5.10762 10.74C5.62204 10.7406 6.1313 10.6375 6.605 10.4369C7.0787 10.2363 7.50713 9.94236 7.86472 9.57256L7.86555 9.57173C8.23583 9.21424 8.53021 8.78575 8.73108 8.31188C8.93195 7.83801 9.03519 7.3285 9.03462 6.81381L9.0338 6.75337V6.75668L9.03214 6.75502ZM14.7947 1.81295C13.4203 1.20937 11.819 0.857486 10.135 0.857486L9.99257 0.858314H10C8.27603 0.828475 6.56508 1.16192 4.97846 1.83696L5.05877 1.80632H5.07285C5.76171 1.80632 6.41745 1.95122 7.01027 2.21119L6.97963 2.19878C7.59149 2.45958 8.11394 2.81643 8.55358 3.25525C8.99319 3.70131 9.34559 4.22556 9.59267 4.80104L9.60509 4.83333C9.85347 5.39552 9.99754 6.05126 9.99754 6.74012V6.75502V6.7542C9.99754 5.41373 10.5283 4.19746 11.3902 3.30327L11.3885 3.30493C11.8206 2.86785 12.3287 2.51321 12.8879 2.25839L12.9194 2.24514C13.5046 1.97444 14.1394 1.82758 14.784 1.81378H14.7898L14.7947 1.81295ZM18.9262 6.7542C18.9251 5.83347 18.6048 4.94161 18.0198 4.23056C17.4349 3.51951 16.6215 3.03327 15.7183 2.85467C14.815 2.67606 13.8778 2.81615 13.0663 3.25106C12.2547 3.68598 11.6191 4.38881 11.2676 5.23982C10.9162 6.09083 10.8706 7.03737 11.1388 7.91819C11.4069 8.79901 11.9722 9.5596 12.7382 10.0704C13.5043 10.5812 14.4237 10.8106 15.3399 10.7195C16.2562 10.6284 17.1125 10.2225 17.7629 9.5709C18.1318 9.2133 18.425 8.78514 18.625 8.31191C18.8249 7.83868 18.9277 7.33005 18.9271 6.81629L18.9262 6.75088V6.7542ZM16.6328 1.87339H19.9355C19.6845 2.16557 19.4714 2.48826 19.3013 2.83382L19.2897 2.86031C19.132 3.16397 19.0172 3.48803 18.9486 3.82323L18.9444 3.84807C19.5625 4.69227 19.8944 5.71204 19.8916 6.75834C19.8916 7.77832 19.576 8.77332 18.9882 9.60688C18.4003 10.4404 17.569 11.0717 16.6082 11.4142C15.6475 11.7566 14.6043 11.7935 13.6217 11.5196C12.6392 11.2458 11.7654 10.6747 11.1202 9.8847L11.1136 9.87559C10.7526 10.3235 10.3858 10.8277 10.0447 11.3502L10 11.4222C9.85596 11.1694 9.6967 10.9255 9.52312 10.692L9.53636 10.711C9.29239 10.3633 9.07823 10.0831 8.89387 9.87062C8.07999 10.868 6.90909 11.5086 5.63022 11.656C4.35135 11.8034 3.06541 11.4461 2.04593 10.66C1.02645 9.87397 0.353871 8.72118 0.171243 7.44686C-0.0113844 6.17253 0.310353 4.87724 1.06802 3.83647L1.05809 3.85138C0.988018 3.50011 0.868426 3.16057 0.702893 2.84293L0.712828 2.86363C0.539106 2.5055 0.319509 2.17151 0.0595703 1.87008L0.0645381 1.87587H3.21243C4.13083 1.27397 5.14001 0.823613 6.20135 0.542034L6.27421 0.525475C7.4679 0.198677 8.70032 0.0349116 9.93792 0.0386363H10.0033H10H10.0886C11.3496 0.0386363 12.5683 0.214991 13.7233 0.544518L13.6298 0.522163C14.7707 0.83927 15.7692 1.3021 16.67 1.90071L16.6311 1.8767L16.6328 1.87339Z" fill="#2E325A"/>
</svg>
