<svg width="18" height="18" viewBox="0 0 18 18" fill="none" xmlns="http://www.w3.org/2000/svg">
<path d="M9.03313 0.720386C4.51249 0.720386 0.828078 4.4048 0.828078 8.92544C0.828078 10.3744 1.20894 11.7819 1.92098 13.0238L0.761841 17.2795L5.10861 16.1369C6.30915 16.791 7.65872 17.1388 9.03313 17.1388C13.5538 17.1388 17.2382 13.4544 17.2382 8.93372C17.2382 6.73963 16.3854 4.67802 14.8371 3.12974C14.078 2.36299 13.1739 1.75506 12.1774 1.3414C11.1809 0.927735 10.1121 0.716628 9.03313 0.720386ZM9.04141 2.10307C10.8629 2.10307 12.5685 2.81512 13.8601 4.10673C14.494 4.74041 14.9966 5.49299 15.339 6.32132C15.6814 7.14964 15.8569 8.03741 15.8555 8.93372C15.8555 12.6926 12.7921 15.7478 9.03313 15.7478C7.80775 15.7478 6.60722 15.4249 5.56399 14.7957L5.3156 14.6549L2.73238 15.3338L3.41958 12.8168L3.25399 12.5519C2.57005 11.4662 2.20829 10.2086 2.21077 8.92544C2.21905 5.16652 5.27421 2.10307 9.04141 2.10307ZM6.127 5.1334C5.99453 5.1334 5.77098 5.18308 5.58055 5.39006C5.3984 5.59705 4.86023 6.10211 4.86023 7.10394C4.86023 8.11404 5.59711 9.08275 5.68818 9.22351C5.8041 9.36426 7.14539 11.4342 9.207 12.3118C9.6955 12.5353 10.0764 12.6595 10.3744 12.7506C10.8629 12.9079 11.31 12.8831 11.666 12.8334C12.0635 12.7754 12.8749 12.3366 13.0487 11.8564C13.2226 11.3762 13.2226 10.9705 13.1729 10.8794C13.115 10.7966 12.9825 10.7469 12.7755 10.6559C12.5685 10.54 11.5584 10.0432 11.3762 9.97695C11.1858 9.91071 11.0699 9.87759 10.9126 10.0763C10.7801 10.2833 10.3827 10.7469 10.2668 10.8794C10.1426 11.0202 10.0267 11.0367 9.82797 10.9374C9.6127 10.8297 8.95034 10.6145 8.17206 9.91899C7.55937 9.37254 7.15367 8.70189 7.02947 8.4949C6.93012 8.29619 7.02119 8.172 7.12055 8.08093C7.21163 7.98985 7.3441 7.84082 7.42689 7.71662C7.53453 7.60071 7.56765 7.50963 7.63388 7.37716C7.70012 7.23641 7.667 7.1205 7.61732 7.02114C7.56765 6.93007 7.15367 5.9034 6.9798 5.4977C6.81421 5.10028 6.64861 5.14996 6.51614 5.14168C6.40023 5.14168 6.26775 5.1334 6.127 5.1334Z" fill="#2E325A"/>
</svg>
